<?xml version="1.0" encoding="utf-8"?>
<!-- Generator: Adobe Illustrator 25.3.1, SVG Export Plug-In . SVG Version: 6.00 Build 0)  -->
<svg version="1.1" id="Layer_1" xmlns="http://www.w3.org/2000/svg" xmlns:xlink="http://www.w3.org/1999/xlink" x="0px" y="0px"
	 viewBox="0 0 588.35 487" style="enable-background:new 0 0 588.35 487;" xml:space="preserve">
<style type="text/css">
	.st0{fill:none;stroke:#8E8E8E;stroke-miterlimit:10;}
	.st1{fill:none;stroke:#0071C5;stroke-width:3.6065;stroke-linecap:square;stroke-miterlimit:10;}
	.st2{stroke:#0071C5;stroke-width:3.6065;stroke-linecap:square;stroke-miterlimit:10;}
	.st3{fill:none;stroke:#76B900;stroke-width:3.6065;stroke-linecap:square;stroke-miterlimit:10;}
	.st4{fill:none;stroke:#76B900;stroke-width:1.5;stroke-miterlimit:10;}
	.st5{fill:#76B900;}
	.st6{fill:none;stroke:#0071C5;stroke-width:1.5;stroke-miterlimit:10;}
	.st7{fill:#0071C5;}
	.st8{fill:#8E8E8E;}
</style>
<line class="st0" x1="135.84" y1="145.97" x2="135.84" y2="288.73"/>
<line class="st0" x1="452.47" y1="145.29" x2="452.47" y2="288.04"/>
<g>
	<rect x="77.94" y="288.09" class="st1" width="115.41" height="115.41"/>
	<polygon class="st2" points="116.64,403.49 117.6,399.89 153.67,399.89 154.64,403.49 	"/>
	<polygon class="st2" points="193.34,364.79 189.74,363.83 189.74,327.76 193.34,326.79 	"/>
	<polygon class="st2" points="154.64,288.09 153.67,291.69 117.61,291.69 116.64,288.09 	"/>
	<polygon class="st2" points="77.94,326.79 81.54,327.76 81.54,363.82 77.94,364.79 	"/>
	<rect x="95.97" y="349.4" class="st1" width="36.06" height="36.06"/>
	<rect x="95.97" y="306.12" class="st1" width="36.06" height="36.06"/>
	<rect x="139.25" y="349.4" class="st1" width="36.06" height="36.06"/>
	<rect x="139.25" y="306.12" class="st1" width="36.06" height="36.06"/>
</g>
<g>
	<rect x="77.93" y="29.8" class="st3" width="115.41" height="115.41"/>
	<rect x="95.97" y="47.84" class="st3" width="3.61" height="3.61"/>
	<rect x="106.79" y="47.84" class="st3" width="3.61" height="3.61"/>
	<rect x="117.61" y="47.84" class="st3" width="3.61" height="3.61"/>
	<rect x="128.42" y="47.84" class="st3" width="3.61" height="3.61"/>
	<rect x="139.24" y="47.84" class="st3" width="3.61" height="3.61"/>
	<rect x="150.06" y="47.84" class="st3" width="3.61" height="3.61"/>
	<rect x="160.88" y="47.84" class="st3" width="3.61" height="3.61"/>
	<rect x="171.7" y="47.84" class="st3" width="3.61" height="3.61"/>
	<rect x="95.97" y="58.65" class="st3" width="3.61" height="3.61"/>
	<rect x="106.79" y="58.65" class="st3" width="3.61" height="3.61"/>
	<rect x="117.61" y="58.65" class="st3" width="3.61" height="3.61"/>
	<rect x="128.42" y="58.65" class="st3" width="3.61" height="3.61"/>
	<rect x="139.24" y="58.65" class="st3" width="3.61" height="3.61"/>
	<rect x="150.06" y="58.65" class="st3" width="3.61" height="3.61"/>
	<rect x="160.88" y="58.65" class="st3" width="3.61" height="3.61"/>
	<rect x="171.7" y="58.65" class="st3" width="3.61" height="3.61"/>
	<rect x="95.97" y="69.47" class="st3" width="3.61" height="3.61"/>
	<rect x="106.79" y="69.47" class="st3" width="3.61" height="3.61"/>
	<rect x="117.61" y="69.47" class="st3" width="3.61" height="3.61"/>
	<rect x="128.42" y="69.47" class="st3" width="3.61" height="3.61"/>
	<rect x="139.24" y="69.47" class="st3" width="3.61" height="3.61"/>
	<rect x="150.06" y="69.47" class="st3" width="3.61" height="3.61"/>
	<rect x="160.88" y="69.47" class="st3" width="3.61" height="3.61"/>
	<rect x="171.7" y="69.47" class="st3" width="3.61" height="3.61"/>
	<rect x="95.97" y="80.29" class="st3" width="3.61" height="3.61"/>
	<rect x="106.79" y="80.29" class="st3" width="3.61" height="3.61"/>
	<rect x="117.61" y="80.29" class="st3" width="3.61" height="3.61"/>
	<rect x="128.42" y="80.29" class="st3" width="3.61" height="3.61"/>
	<rect x="139.24" y="80.29" class="st3" width="3.61" height="3.61"/>
	<rect x="150.06" y="80.29" class="st3" width="3.61" height="3.61"/>
	<rect x="160.88" y="80.29" class="st3" width="3.61" height="3.61"/>
	<rect x="171.7" y="80.29" class="st3" width="3.61" height="3.61"/>
	<rect x="95.97" y="91.11" class="st3" width="3.61" height="3.61"/>
	<rect x="106.79" y="91.11" class="st3" width="3.61" height="3.61"/>
	<rect x="117.61" y="91.11" class="st3" width="3.61" height="3.61"/>
	<rect x="128.42" y="91.11" class="st3" width="3.61" height="3.61"/>
	<rect x="139.24" y="91.11" class="st3" width="3.61" height="3.61"/>
	<rect x="150.06" y="91.11" class="st3" width="3.61" height="3.61"/>
	<rect x="160.88" y="91.11" class="st3" width="3.61" height="3.61"/>
	<rect x="171.7" y="91.11" class="st3" width="3.61" height="3.61"/>
	<rect x="95.97" y="101.93" class="st3" width="3.61" height="3.61"/>
	<rect x="106.79" y="101.93" class="st3" width="3.61" height="3.61"/>
	<rect x="117.61" y="101.93" class="st3" width="3.61" height="3.61"/>
	<rect x="128.42" y="101.93" class="st3" width="3.61" height="3.61"/>
	<rect x="139.24" y="101.93" class="st3" width="3.61" height="3.61"/>
	<rect x="150.06" y="101.93" class="st3" width="3.61" height="3.61"/>
	<rect x="160.88" y="101.93" class="st3" width="3.61" height="3.61"/>
	<rect x="171.7" y="101.93" class="st3" width="3.61" height="3.61"/>
	<rect x="95.97" y="112.75" class="st3" width="3.61" height="3.61"/>
	<rect x="106.79" y="112.75" class="st3" width="3.61" height="3.61"/>
	<rect x="117.61" y="112.75" class="st3" width="3.61" height="3.61"/>
	<rect x="128.42" y="112.75" class="st3" width="3.61" height="3.61"/>
	<rect x="139.24" y="112.75" class="st3" width="3.61" height="3.61"/>
	<rect x="150.06" y="112.75" class="st3" width="3.61" height="3.61"/>
	<rect x="160.88" y="112.75" class="st3" width="3.61" height="3.61"/>
	<rect x="171.7" y="112.75" class="st3" width="3.61" height="3.61"/>
	<rect x="95.97" y="123.57" class="st3" width="3.61" height="3.61"/>
	<rect x="106.79" y="123.57" class="st3" width="3.61" height="3.61"/>
	<rect x="117.61" y="123.57" class="st3" width="3.61" height="3.61"/>
	<rect x="128.42" y="123.57" class="st3" width="3.61" height="3.61"/>
	<rect x="139.24" y="123.57" class="st3" width="3.61" height="3.61"/>
	<rect x="150.06" y="123.57" class="st3" width="3.61" height="3.61"/>
	<rect x="160.88" y="123.57" class="st3" width="3.61" height="3.61"/>
	<rect x="171.7" y="123.57" class="st3" width="3.61" height="3.61"/>
	<polygon class="st3" points="116.64,145.21 117.6,141.6 153.67,141.6 154.64,145.21 	"/>
	<polygon class="st3" points="193.34,106.51 189.73,105.54 189.73,69.47 193.34,68.51 	"/>
	<polygon class="st3" points="154.64,29.8 153.67,33.41 117.61,33.41 116.64,29.8 	"/>
	<polygon class="st3" points="77.93,68.51 81.54,69.47 81.54,105.54 77.93,106.51 	"/>
</g>
<g>
	<g>
		<g>
			<line class="st4" x1="155.64" y1="178.06" x2="155.64" y2="252.29"/>
			<g>
				<polygon class="st5" points="152.64,251.42 155.64,256.6 158.63,251.42 				"/>
			</g>
		</g>
	</g>
	<g>
		<g>
			<polyline class="st4" points="115.84,178.06 115.84,256.6 95.49,256.6 95.49,182.36 			"/>
			<g>
				<polygon class="st5" points="98.48,183.24 95.49,178.06 92.5,183.24 				"/>
			</g>
		</g>
	</g>
</g>
<g>
	<rect x="394.56" y="288.09" class="st1" width="115.41" height="115.41"/>
	<polygon class="st2" points="433.27,403.49 434.23,399.89 470.3,399.89 471.27,403.49 	"/>
	<polygon class="st2" points="509.97,364.79 506.36,363.83 506.36,327.76 509.97,326.79 	"/>
	<polygon class="st2" points="471.27,288.09 470.3,291.69 434.24,291.69 433.27,288.09 	"/>
	<polygon class="st2" points="394.56,326.79 398.17,327.76 398.17,363.82 394.56,364.79 	"/>
	<rect x="412.6" y="349.4" class="st1" width="36.06" height="36.06"/>
	<rect x="412.6" y="306.12" class="st1" width="36.06" height="36.06"/>
	<rect x="455.87" y="349.4" class="st1" width="36.06" height="36.06"/>
	<rect x="455.87" y="306.12" class="st1" width="36.06" height="36.06"/>
</g>
<g>
	<rect x="394.56" y="29.88" class="st3" width="115.41" height="115.41"/>
	<rect x="412.6" y="47.91" class="st3" width="3.61" height="3.61"/>
	<rect x="423.41" y="47.91" class="st3" width="3.61" height="3.61"/>
	<rect x="434.23" y="47.91" class="st3" width="3.61" height="3.61"/>
	<rect x="445.05" y="47.91" class="st3" width="3.61" height="3.61"/>
	<rect x="455.87" y="47.91" class="st3" width="3.61" height="3.61"/>
	<rect x="466.69" y="47.91" class="st3" width="3.61" height="3.61"/>
	<rect x="477.51" y="47.91" class="st3" width="3.61" height="3.61"/>
	<rect x="488.33" y="47.91" class="st3" width="3.61" height="3.61"/>
	<rect x="412.6" y="58.73" class="st3" width="3.61" height="3.61"/>
	<rect x="423.41" y="58.73" class="st3" width="3.61" height="3.61"/>
	<rect x="434.23" y="58.73" class="st3" width="3.61" height="3.61"/>
	<rect x="445.05" y="58.73" class="st3" width="3.61" height="3.61"/>
	<rect x="455.87" y="58.73" class="st3" width="3.61" height="3.61"/>
	<rect x="466.69" y="58.73" class="st3" width="3.61" height="3.61"/>
	<rect x="477.51" y="58.73" class="st3" width="3.61" height="3.61"/>
	<rect x="488.33" y="58.73" class="st3" width="3.61" height="3.61"/>
	<rect x="412.6" y="69.55" class="st3" width="3.61" height="3.61"/>
	<rect x="423.41" y="69.55" class="st3" width="3.61" height="3.61"/>
	<rect x="434.23" y="69.55" class="st3" width="3.61" height="3.61"/>
	<rect x="445.05" y="69.55" class="st3" width="3.61" height="3.61"/>
	<rect x="455.87" y="69.55" class="st3" width="3.61" height="3.61"/>
	<rect x="466.69" y="69.55" class="st3" width="3.61" height="3.61"/>
	<rect x="477.51" y="69.55" class="st3" width="3.61" height="3.61"/>
	<rect x="488.33" y="69.55" class="st3" width="3.61" height="3.61"/>
	<rect x="412.6" y="80.37" class="st3" width="3.61" height="3.61"/>
	<rect x="423.41" y="80.37" class="st3" width="3.61" height="3.61"/>
	<rect x="434.23" y="80.37" class="st3" width="3.61" height="3.61"/>
	<rect x="445.05" y="80.37" class="st3" width="3.61" height="3.61"/>
	<rect x="455.87" y="80.37" class="st3" width="3.61" height="3.61"/>
	<rect x="466.69" y="80.37" class="st3" width="3.61" height="3.61"/>
	<rect x="477.51" y="80.37" class="st3" width="3.61" height="3.61"/>
	<rect x="488.33" y="80.37" class="st3" width="3.61" height="3.61"/>
	<rect x="412.6" y="91.19" class="st3" width="3.61" height="3.61"/>
	<rect x="423.41" y="91.19" class="st3" width="3.61" height="3.61"/>
	<rect x="434.23" y="91.19" class="st3" width="3.61" height="3.61"/>
	<rect x="445.05" y="91.19" class="st3" width="3.61" height="3.61"/>
	<rect x="455.87" y="91.19" class="st3" width="3.61" height="3.61"/>
	<rect x="466.69" y="91.19" class="st3" width="3.61" height="3.61"/>
	<rect x="477.51" y="91.19" class="st3" width="3.61" height="3.61"/>
	<rect x="488.33" y="91.19" class="st3" width="3.61" height="3.61"/>
	<rect x="412.6" y="102.01" class="st3" width="3.61" height="3.61"/>
	<rect x="423.41" y="102.01" class="st3" width="3.61" height="3.61"/>
	<rect x="434.23" y="102.01" class="st3" width="3.61" height="3.61"/>
	<rect x="445.05" y="102.01" class="st3" width="3.61" height="3.61"/>
	<rect x="455.87" y="102.01" class="st3" width="3.61" height="3.61"/>
	<rect x="466.69" y="102.01" class="st3" width="3.61" height="3.61"/>
	<rect x="477.51" y="102.01" class="st3" width="3.61" height="3.61"/>
	<rect x="488.33" y="102.01" class="st3" width="3.61" height="3.61"/>
	<rect x="412.6" y="112.83" class="st3" width="3.61" height="3.61"/>
	<rect x="423.41" y="112.83" class="st3" width="3.61" height="3.61"/>
	<rect x="434.23" y="112.83" class="st3" width="3.61" height="3.61"/>
	<rect x="445.05" y="112.83" class="st3" width="3.61" height="3.61"/>
	<rect x="455.87" y="112.83" class="st3" width="3.61" height="3.61"/>
	<rect x="466.69" y="112.83" class="st3" width="3.61" height="3.61"/>
	<rect x="477.51" y="112.83" class="st3" width="3.61" height="3.61"/>
	<rect x="488.33" y="112.83" class="st3" width="3.61" height="3.61"/>
	<rect x="412.6" y="123.65" class="st3" width="3.61" height="3.61"/>
	<rect x="423.41" y="123.65" class="st3" width="3.61" height="3.61"/>
	<rect x="434.23" y="123.65" class="st3" width="3.61" height="3.61"/>
	<rect x="445.05" y="123.65" class="st3" width="3.61" height="3.61"/>
	<rect x="455.87" y="123.65" class="st3" width="3.61" height="3.61"/>
	<rect x="466.69" y="123.65" class="st3" width="3.61" height="3.61"/>
	<rect x="477.51" y="123.65" class="st3" width="3.61" height="3.61"/>
	<rect x="488.33" y="123.65" class="st3" width="3.61" height="3.61"/>
	<polygon class="st3" points="433.27,145.29 434.23,141.68 470.3,141.68 471.27,145.29 	"/>
	<polygon class="st3" points="509.97,106.58 506.36,105.62 506.36,69.55 509.97,68.58 	"/>
	<polygon class="st3" points="471.27,29.88 470.3,33.49 434.23,33.49 433.27,29.88 	"/>
	<polygon class="st3" points="394.56,68.58 398.17,69.55 398.17,105.61 394.56,106.58 	"/>
</g>
<g>
	<g>
		<g>
			<line class="st6" x1="432.12" y1="255.96" x2="432.12" y2="181.72"/>
			<g>
				<polygon class="st7" points="435.11,182.6 432.12,177.42 429.13,182.6 				"/>
			</g>
		</g>
	</g>
	<g>
		<g>
			<polyline class="st6" points="471.92,255.96 471.92,177.42 492.27,177.42 492.27,251.65 			"/>
			<g>
				<polygon class="st7" points="489.27,250.78 492.27,255.96 495.26,250.78 				"/>
			</g>
		</g>
	</g>
</g>
<g>
	<path d="M50.04,222.9v-5.85h-6.09v5.85h-1.37v-12.82h1.37v5.74h6.09v-5.74h1.37v12.82H50.04z"/>
	<path d="M54.48,222.9v-1.15l5.06-6.43c0.49-0.63,0.72-1.19,0.72-1.89c0-1.39-0.83-2.3-2.23-2.3c-1.19,0-2.23,0.67-2.23,2.32h-1.3
		c0-2.02,1.39-3.48,3.53-3.48c2.11,0,3.53,1.35,3.53,3.46c0,1.03-0.32,1.69-1.03,2.59l-4.48,5.73h5.51v1.15H54.48z"/>
	<path d="M72.14,221.71c-0.77,0.77-1.91,1.19-3.24,1.19h-4.39v-12.82h4.39c1.33,0,2.47,0.41,3.24,1.19
		c1.33,1.33,1.26,3.29,1.26,5.08S73.47,220.38,72.14,221.71z M71.19,212.24c-0.67-0.68-1.53-0.94-2.52-0.94h-2.79v10.37h2.79
		c0.99,0,1.85-0.25,2.52-0.94c0.88-0.92,0.85-2.83,0.85-4.39S72.07,213.16,71.19,212.24z"/>
</g>
<g>
	<path class="st8" d="M34.27,91.69c-0.9,0.97-2.11,1.48-3.42,1.48c-1.26,0-2.41-0.47-3.28-1.33c-1.21-1.21-1.21-2.47-1.21-5.19
		c0-2.72,0-3.98,1.21-5.19c0.86-0.86,2-1.33,3.28-1.33c2.45,0,4.11,1.58,4.48,3.83h-1.37c-0.36-1.62-1.51-2.61-3.12-2.61
		c-0.85,0-1.66,0.34-2.21,0.92c-0.81,0.83-0.9,1.69-0.9,4.38c0,2.68,0.09,3.56,0.9,4.39c0.56,0.58,1.37,0.9,2.21,0.9
		c0.94,0,1.84-0.38,2.43-1.1C33.8,90.22,34,89.52,34,88.53v-0.97h-3.15v-1.21h4.52v2.03C35.37,89.86,35.06,90.85,34.27,91.69z"/>
	<path class="st8" d="M43.33,87.79h-3.4v5.28h-1.37V80.24h4.77c2.34,0,3.96,1.46,3.96,3.76S45.67,87.79,43.33,87.79z M43.2,81.47
		h-3.28v5.1h3.28c1.6,0,2.72-0.86,2.72-2.56S44.8,81.47,43.2,81.47z"/>
	<path class="st8" d="M54.18,93.17c-2.59,0-4.47-1.78-4.47-4.34v-8.59h1.37v8.48c0,1.94,1.22,3.22,3.1,3.22s3.12-1.28,3.12-3.22
		v-8.48h1.37v8.59C58.66,91.39,56.77,93.17,54.18,93.17z"/>
</g>
<g>
	<path class="st8" d="M537.29,91.69c-0.9,0.97-2.11,1.48-3.42,1.48c-1.26,0-2.41-0.47-3.28-1.33c-1.21-1.21-1.21-2.47-1.21-5.19
		c0-2.72,0-3.98,1.21-5.19c0.86-0.86,2-1.33,3.28-1.33c2.45,0,4.11,1.58,4.48,3.83h-1.37c-0.36-1.62-1.51-2.61-3.12-2.61
		c-0.85,0-1.66,0.34-2.21,0.92c-0.81,0.83-0.9,1.69-0.9,4.38c0,2.68,0.09,3.56,0.9,4.39c0.56,0.58,1.37,0.9,2.21,0.9
		c0.94,0,1.84-0.38,2.43-1.1c0.52-0.63,0.72-1.33,0.72-2.32v-0.97h-3.15v-1.21h4.52v2.03C538.38,89.86,538.08,90.85,537.29,91.69z"
		/>
	<path class="st8" d="M546.34,87.79h-3.4v5.28h-1.37V80.24h4.77c2.34,0,3.96,1.46,3.96,3.76S548.68,87.79,546.34,87.79z
		 M546.21,81.47h-3.28v5.1h3.28c1.6,0,2.72-0.86,2.72-2.56S547.82,81.47,546.21,81.47z"/>
	<path class="st8" d="M557.19,93.17c-2.59,0-4.46-1.78-4.46-4.34v-8.59h1.37v8.48c0,1.94,1.22,3.22,3.1,3.22
		c1.87,0,3.12-1.28,3.12-3.22v-8.48h1.37v8.59C561.68,91.39,559.79,93.17,557.19,93.17z"/>
</g>
<g>
	<path class="st8" d="M31.32,351.47c-1.26,0-2.41-0.47-3.28-1.33c-1.21-1.21-1.21-2.47-1.21-5.19c0-2.72,0-3.98,1.21-5.19
		c0.86-0.86,2.02-1.33,3.28-1.33c2.3,0,4.02,1.4,4.45,3.82h-1.4c-0.34-1.57-1.44-2.59-3.04-2.59c-0.85,0-1.66,0.32-2.21,0.9
		c-0.81,0.83-0.9,1.71-0.9,4.39c0,2.68,0.09,3.56,0.9,4.39c0.56,0.58,1.37,0.9,2.21,0.9c1.6,0,2.74-1.03,3.08-2.59h1.37
		C35.35,350.07,33.61,351.47,31.32,351.47z"/>
	<path class="st8" d="M43.56,346.09h-3.4v5.28h-1.37v-12.82h4.77c2.34,0,3.96,1.46,3.96,3.76S45.9,346.09,43.56,346.09z
		 M43.44,339.77h-3.28v5.09h3.28c1.6,0,2.72-0.86,2.72-2.56S45.04,339.77,43.44,339.77z"/>
	<path class="st8" d="M54.41,351.47c-2.59,0-4.47-1.78-4.47-4.34v-8.59h1.37v8.48c0,1.94,1.22,3.22,3.1,3.22s3.12-1.28,3.12-3.22
		v-8.48h1.37v8.59C58.9,349.69,57.01,351.47,54.41,351.47z"/>
</g>
<g>
	<path class="st8" d="M533.87,351.47c-1.26,0-2.41-0.47-3.28-1.33c-1.21-1.21-1.21-2.47-1.21-5.19c0-2.72,0-3.98,1.21-5.19
		c0.86-0.86,2.02-1.33,3.28-1.33c2.3,0,4.02,1.4,4.45,3.82h-1.41c-0.34-1.57-1.44-2.59-3.04-2.59c-0.85,0-1.66,0.32-2.21,0.9
		c-0.81,0.83-0.9,1.71-0.9,4.39c0,2.68,0.09,3.56,0.9,4.39c0.56,0.58,1.37,0.9,2.21,0.9c1.6,0,2.74-1.03,3.08-2.59h1.37
		C537.9,350.07,536.15,351.47,533.87,351.47z"/>
	<path class="st8" d="M546.11,346.09h-3.4v5.28h-1.37v-12.82h4.77c2.34,0,3.96,1.46,3.96,3.76S548.45,346.09,546.11,346.09z
		 M545.98,339.77h-3.28v5.09h3.28c1.6,0,2.72-0.86,2.72-2.56S547.58,339.77,545.98,339.77z"/>
	<path class="st8" d="M556.96,351.47c-2.59,0-4.46-1.78-4.46-4.34v-8.59h1.37v8.48c0,1.94,1.22,3.22,3.1,3.22
		c1.87,0,3.12-1.28,3.12-3.22v-8.48h1.37v8.59C561.44,349.69,559.55,351.47,556.96,351.47z"/>
</g>
<g>
	<path d="M185.85,221.71c-0.77,0.77-1.91,1.19-3.24,1.19h-4.39v-12.82h4.39c1.33,0,2.47,0.41,3.24,1.19
		c1.33,1.33,1.26,3.29,1.26,5.08S187.18,220.38,185.85,221.71z M184.9,212.24c-0.67-0.68-1.53-0.94-2.52-0.94h-2.79v10.37h2.79
		c0.99,0,1.85-0.25,2.52-0.94c0.88-0.92,0.85-2.83,0.85-4.39S185.78,213.16,184.9,212.24z"/>
	<path d="M189.7,222.9v-1.15l5.06-6.43c0.49-0.63,0.72-1.19,0.72-1.89c0-1.39-0.83-2.3-2.23-2.3c-1.19,0-2.23,0.67-2.23,2.32h-1.3
		c0-2.02,1.39-3.48,3.53-3.48c2.11,0,3.53,1.35,3.53,3.46c0,1.03-0.32,1.69-1.03,2.59l-4.48,5.73h5.51v1.15H189.7z"/>
	<path d="M207.18,222.9v-5.85h-6.09v5.85h-1.37v-12.82h1.37v5.74h6.09v-5.74h1.37v12.82H207.18z"/>
</g>
<g>
	<path d="M88.23,439.24c-2.23,0-3.93-1.51-3.93-4.54c0-3.02,1.69-4.54,3.93-4.54c1.22,0,2,0.32,2.92,1.31l-0.88,0.83
		c-0.67-0.74-1.19-0.99-2.03-0.99c-0.86,0-1.58,0.34-2.05,1.01c-0.41,0.58-0.58,1.26-0.58,2.38s0.16,1.8,0.58,2.38
		c0.47,0.67,1.19,1.01,2.05,1.01c0.85,0,1.37-0.27,2.03-1.01l0.88,0.85C90.23,438.92,89.45,439.24,88.23,439.24z"/>
	<path d="M99.21,439.14v-0.99c-0.63,0.72-1.51,1.1-2.5,1.1c-0.95,0-1.75-0.29-2.29-0.83c-0.63-0.61-0.9-1.46-0.9-2.48v-5.65h1.3
		v5.46c0,1.57,0.83,2.36,2.16,2.36c1.33,0,2.21-0.81,2.21-2.36v-5.46h1.3v8.86H99.21z"/>
	<path d="M109.02,439.14v-1.06c-0.72,0.94-1.55,1.17-2.52,1.17c-0.9,0-1.69-0.31-2.16-0.77c-0.9-0.9-1.08-2.38-1.08-3.76
		s0.18-2.86,1.08-3.76c0.47-0.47,1.26-0.77,2.16-0.77c0.97,0,1.78,0.22,2.5,1.13v-4.99h1.3v12.82H109.02z M106.79,431.32
		c-1.93,0-2.23,1.66-2.23,3.38s0.31,3.38,2.23,3.38c1.93,0,2.21-1.66,2.21-3.38S108.71,431.32,106.79,431.32z"/>
	<path d="M118.56,439.14v-0.85c-0.72,0.72-1.37,0.95-2.56,0.95c-1.22,0-1.94-0.23-2.5-0.81c-0.43-0.43-0.67-1.1-0.67-1.8
		c0-1.55,1.08-2.56,3.06-2.56h2.67v-0.85c0-1.3-0.65-1.94-2.27-1.94c-1.13,0-1.71,0.27-2.23,1.01l-0.88-0.81
		c0.79-1.03,1.69-1.31,3.13-1.31c2.38,0,3.55,1.03,3.55,2.95v6.01H118.56z M118.56,435.05h-2.48c-1.33,0-1.98,0.54-1.98,1.57
		c0,1.03,0.63,1.51,2.03,1.51c0.76,0,1.42-0.05,1.98-0.59c0.31-0.29,0.45-0.79,0.45-1.53V435.05z"/>
	<path d="M132.85,439.14v-9.74l-3.51,7.72h-1.17l-3.56-7.72v9.74h-1.37v-12.82h1.37l4.18,9.09l4.07-9.09h1.37v12.82H132.85z"/>
	<path d="M138.5,435.05c0,1.95,0.92,3.06,2.61,3.06c1.03,0,1.62-0.31,2.32-1.01l0.88,0.77c-0.9,0.9-1.73,1.37-3.24,1.37
		c-2.34,0-3.87-1.4-3.87-4.54c0-2.86,1.39-4.54,3.64-4.54c2.29,0,3.64,1.66,3.64,4.29v0.59H138.5z M142.91,432.6
		c-0.34-0.81-1.13-1.33-2.07-1.33c-0.94,0-1.73,0.52-2.07,1.33c-0.2,0.49-0.23,0.76-0.27,1.48h4.68
		C143.15,433.36,143.11,433.09,142.91,432.6z"/>
	<path d="M158.61,439.14v-5.46c0-1.57-0.85-2.36-2.18-2.36c-1.3,0-2.21,0.81-2.21,2.21v5.6h-1.3v-5.46c0-1.57-0.85-2.36-2.18-2.36
		c-1.33,0-2.21,0.81-2.21,2.36v5.46h-1.3v-8.86h1.3v0.97c0.63-0.72,1.51-1.08,2.5-1.08c1.22,0,2.18,0.5,2.72,1.48
		c0.68-0.97,1.67-1.48,2.92-1.48c0.95,0,1.75,0.31,2.29,0.83c0.63,0.61,0.95,1.44,0.95,2.47v5.67H158.61z"/>
	<path d="M166.49,439.24c-2.23,0-3.93-1.51-3.93-4.54c0-3.02,1.69-4.54,3.93-4.54c1.22,0,2,0.32,2.92,1.31l-0.88,0.83
		c-0.67-0.74-1.19-0.99-2.03-0.99c-0.86,0-1.58,0.34-2.05,1.01c-0.41,0.58-0.58,1.26-0.58,2.38s0.16,1.8,0.58,2.38
		c0.47,0.67,1.19,1.01,2.05,1.01c0.85,0,1.37-0.27,2.03-1.01l0.88,0.85C168.49,438.92,167.72,439.24,166.49,439.24z"/>
	<path d="M177.83,438.47c-0.47,0.47-1.26,0.77-2.16,0.77c-0.97,0-1.78-0.23-2.5-1.15v5.01h-1.3v-12.82h1.3v1.04
		c0.72-0.94,1.53-1.15,2.5-1.15c0.9,0,1.69,0.31,2.16,0.77c0.9,0.9,1.08,2.38,1.08,3.76S178.73,437.57,177.83,438.47z M175.4,431.32
		c-1.93,0-2.23,1.66-2.23,3.38s0.31,3.38,2.23,3.38c1.93,0,2.21-1.66,2.21-3.38S177.33,431.32,175.4,431.32z"/>
	<path d="M183.88,441.28c-0.18,0.49-0.38,0.81-0.63,1.04c-0.47,0.45-1.1,0.61-1.73,0.61h-0.56v-1.15h0.4c0.9,0,1.17-0.29,1.46-1.1
		l0.63-1.73l-3.19-8.68h1.4l2.43,7.11l2.41-7.11h1.4L183.88,441.28z"/>
	<path d="M62.89,462.43c-0.58-0.58-0.97-0.95-1.3-1.55c-0.32-0.59-0.38-1.22-0.38-1.85v-9.4c0-0.63,0.05-1.26,0.38-1.85
		c0.32-0.59,0.72-0.97,1.3-1.55l0.88,0.88c-0.41,0.41-0.74,0.7-0.97,1.17c-0.18,0.36-0.29,0.86-0.29,1.46v9.18
		c0,0.59,0.11,1.1,0.29,1.46c0.23,0.47,0.56,0.76,0.97,1.17L62.89,462.43z"/>
	<path d="M72.15,460.74v-0.99c-0.63,0.72-1.51,1.1-2.5,1.1c-0.95,0-1.75-0.29-2.29-0.83c-0.63-0.61-0.9-1.46-0.9-2.49v-5.65h1.3
		v5.46c0,1.57,0.83,2.36,2.16,2.36c1.33,0,2.21-0.81,2.21-2.36v-5.46h1.3v8.86H72.15z"/>
	<path d="M79.45,460.85c-1.49,0-2.66-0.34-3.64-1.28l0.86-0.86c0.7,0.74,1.66,1.03,2.75,1.03c1.46,0,2.36-0.52,2.36-1.57
		c0-0.77-0.45-1.21-1.48-1.3l-1.46-0.13c-1.73-0.14-2.65-0.92-2.65-2.38c0-1.62,1.37-2.59,3.26-2.59c1.26,0,2.4,0.31,3.19,0.96
		l-0.85,0.85c-0.63-0.49-1.44-0.7-2.36-0.7c-1.3,0-1.98,0.56-1.98,1.46c0,0.76,0.43,1.21,1.55,1.3l1.42,0.13
		c1.55,0.14,2.61,0.74,2.61,2.39C83.05,459.86,81.6,460.85,79.45,460.85z"/>
	<path d="M85.52,449.36v-1.46h1.46v1.46H85.52z M85.59,460.74v-8.86h1.3v8.86H85.59z"/>
	<path d="M95.82,460.74v-5.46c0-1.57-0.85-2.36-2.18-2.36c-1.33,0-2.2,0.81-2.2,2.36v5.46h-1.3v-8.86h1.3v0.97
		c0.63-0.72,1.49-1.08,2.48-1.08c0.95,0,1.73,0.29,2.27,0.83c0.63,0.61,0.92,1.44,0.92,2.47v5.67H95.82z"/>
	<path d="M103.1,464.81c-1.33,0-2.07-0.34-3.01-1.19l0.85-0.83c0.65,0.58,1.1,0.88,2.12,0.88c1.71,0,2.43-1.21,2.43-2.72v-1.39
		c-0.72,0.92-1.53,1.15-2.48,1.15c-0.9,0-1.67-0.32-2.14-0.79c-0.88-0.88-1.08-2.25-1.08-3.69s0.2-2.81,1.08-3.69
		c0.47-0.47,1.26-0.77,2.16-0.77c0.97,0,1.76,0.22,2.48,1.15v-1.04h1.28v9.13C106.8,463.2,105.43,464.81,103.1,464.81z
		 M103.3,452.92c-1.93,0-2.21,1.66-2.21,3.31s0.29,3.31,2.21,3.31c1.93,0,2.2-1.66,2.2-3.31S105.23,452.92,103.3,452.92z"/>
	<path d="M122.17,459.37c-0.9,0.97-2.11,1.48-3.42,1.48c-1.26,0-2.41-0.47-3.28-1.33c-1.21-1.21-1.21-2.47-1.21-5.19
		c0-2.72,0-3.98,1.21-5.19c0.86-0.86,2-1.33,3.28-1.33c2.45,0,4.11,1.58,4.48,3.83h-1.37c-0.36-1.62-1.51-2.61-3.12-2.61
		c-0.85,0-1.66,0.34-2.21,0.92c-0.81,0.83-0.9,1.69-0.9,4.38c0,2.68,0.09,3.57,0.9,4.39c0.56,0.58,1.37,0.9,2.21,0.9
		c0.94,0,1.84-0.38,2.43-1.1c0.52-0.63,0.72-1.33,0.72-2.32v-0.97h-3.15v-1.21h4.52v2.03C123.27,457.53,122.96,458.52,122.17,459.37
		z"/>
	<path d="M131.22,455.46h-3.4v5.28h-1.37v-12.82h4.77c2.34,0,3.96,1.46,3.96,3.76S133.56,455.46,131.22,455.46z M131.1,449.14h-3.28
		v5.1h3.28c1.6,0,2.72-0.86,2.72-2.56S132.7,449.14,131.1,449.14z"/>
	<path d="M142.07,460.85c-2.59,0-4.47-1.78-4.47-4.34v-8.59h1.37v8.48c0,1.94,1.22,3.22,3.1,3.22s3.12-1.28,3.12-3.22v-8.48h1.37
		v8.59C146.56,459.06,144.67,460.85,142.07,460.85z"/>
	<path d="M155.14,456.65c0,1.94,0.92,3.06,2.61,3.06c1.03,0,1.62-0.31,2.32-1.01l0.88,0.77c-0.9,0.9-1.73,1.37-3.24,1.37
		c-2.34,0-3.87-1.4-3.87-4.54c0-2.86,1.39-4.54,3.64-4.54c2.29,0,3.64,1.66,3.64,4.29v0.59H155.14z M159.55,454.2
		c-0.34-0.81-1.13-1.33-2.07-1.33c-0.94,0-1.73,0.52-2.07,1.33c-0.2,0.49-0.23,0.76-0.27,1.48h4.68
		C159.79,454.96,159.75,454.69,159.55,454.2z"/>
	<path d="M169.54,460.74v-5.46c0-1.57-0.85-2.36-2.18-2.36c-1.33,0-2.2,0.81-2.2,2.36v5.46h-1.3v-8.86h1.3v0.97
		c0.63-0.72,1.49-1.08,2.48-1.08c0.95,0,1.73,0.29,2.27,0.83c0.63,0.61,0.92,1.44,0.92,2.47v5.67H169.54z"/>
	<path d="M176.83,464.81c-1.33,0-2.07-0.34-3.01-1.19l0.85-0.83c0.65,0.58,1.1,0.88,2.12,0.88c1.71,0,2.43-1.21,2.43-2.72v-1.39
		c-0.72,0.92-1.53,1.15-2.48,1.15c-0.9,0-1.67-0.32-2.14-0.79c-0.88-0.88-1.08-2.25-1.08-3.69s0.2-2.81,1.08-3.69
		c0.47-0.47,1.26-0.77,2.16-0.77c0.97,0,1.76,0.22,2.48,1.15v-1.04h1.28v9.13C180.52,463.2,179.15,464.81,176.83,464.81z
		 M177.03,452.92c-1.93,0-2.21,1.66-2.21,3.31s0.29,3.31,2.21,3.31c1.93,0,2.2-1.66,2.2-3.31S178.96,452.92,177.03,452.92z"/>
	<path d="M183.69,449.36v-1.46h1.46v1.46H183.69z M183.76,460.74v-8.86h1.3v8.86H183.76z"/>
	<path d="M193.99,460.74v-5.46c0-1.57-0.85-2.36-2.18-2.36c-1.33,0-2.2,0.81-2.2,2.36v5.46h-1.3v-8.86h1.3v0.97
		c0.63-0.72,1.49-1.08,2.48-1.08c0.95,0,1.73,0.29,2.27,0.83c0.63,0.61,0.92,1.44,0.92,2.47v5.67H193.99z"/>
	<path d="M199.24,456.65c0,1.94,0.92,3.06,2.61,3.06c1.03,0,1.62-0.31,2.32-1.01l0.88,0.77c-0.9,0.9-1.73,1.37-3.24,1.37
		c-2.34,0-3.87-1.4-3.87-4.54c0-2.86,1.39-4.54,3.64-4.54c2.29,0,3.64,1.66,3.64,4.29v0.59H199.24z M203.65,454.2
		c-0.34-0.81-1.13-1.33-2.07-1.33c-0.94,0-1.73,0.52-2.07,1.33c-0.2,0.49-0.23,0.76-0.27,1.48h4.68
		C203.89,454.96,203.85,454.69,203.65,454.2z"/>
	<path d="M209.68,460.88c-0.32,0.59-0.72,0.97-1.3,1.55l-0.92-0.92c0.41-0.41,0.76-0.7,0.99-1.17c0.18-0.36,0.25-0.85,0.25-1.42
		v-9.18c0-0.58-0.07-1.06-0.25-1.42c-0.23-0.47-0.58-0.76-0.99-1.17l0.92-0.92c0.58,0.58,0.97,0.95,1.3,1.55
		c0.32,0.59,0.36,1.22,0.36,1.85v9.4C210.04,459.66,210.01,460.29,209.68,460.88z"/>
</g>
<g>
	<path d="M424.3,437.77c-0.9,0.97-2.11,1.48-3.42,1.48c-1.26,0-2.41-0.47-3.28-1.33c-1.21-1.21-1.21-2.47-1.21-5.19
		s0-3.98,1.21-5.19c0.86-0.86,2-1.33,3.28-1.33c2.45,0,4.11,1.58,4.48,3.83h-1.37c-0.36-1.62-1.51-2.61-3.12-2.61
		c-0.85,0-1.66,0.34-2.21,0.92c-0.81,0.83-0.9,1.69-0.9,4.38s0.09,3.57,0.9,4.39c0.56,0.58,1.37,0.9,2.21,0.9
		c0.94,0,1.84-0.38,2.43-1.1c0.52-0.63,0.72-1.33,0.72-2.32v-0.97h-3.15v-1.21h4.52v2.03C425.4,435.93,425.09,436.92,424.3,437.77z"
		/>
	<path d="M436.21,437.95c-0.77,0.77-1.91,1.19-3.24,1.19h-4.39v-12.82h4.39c1.33,0,2.47,0.41,3.24,1.19
		c1.33,1.33,1.26,3.29,1.26,5.08C437.47,434.37,437.55,436.62,436.21,437.95z M435.26,428.48c-0.67-0.68-1.53-0.94-2.52-0.94h-2.79
		v10.37h2.79c0.99,0,1.85-0.25,2.52-0.94c0.88-0.92,0.85-2.83,0.85-4.39C436.11,431.02,436.14,429.4,435.26,428.48z"/>
	<path d="M448.06,439.14l-2.92-5.69h-3.08v5.69h-1.37v-12.82h4.92c2.23,0,3.8,1.35,3.8,3.57c0,1.87-1.13,3.1-2.79,3.44l3.04,5.82
		H448.06z M445.48,427.54h-3.42v4.7h3.42c1.5,0,2.56-0.77,2.56-2.34S446.98,427.54,445.48,427.54z"/>
	<path d="M456.5,439.24c-1.26,0-2.41-0.47-3.28-1.33c-1.21-1.21-1.21-2.47-1.21-5.19s0-3.98,1.21-5.19
		c0.86-0.86,2.02-1.33,3.28-1.33c2.3,0,4.02,1.4,4.45,3.82h-1.41c-0.34-1.57-1.44-2.59-3.04-2.59c-0.85,0-1.66,0.32-2.21,0.9
		c-0.81,0.83-0.9,1.71-0.9,4.39s0.09,3.57,0.9,4.39c0.56,0.58,1.37,0.9,2.21,0.9c1.6,0,2.74-1.03,3.08-2.59h1.37
		C460.53,437.84,458.79,439.24,456.5,439.24z"/>
	<path d="M469.42,438.24c-0.61,0.61-1.46,1.01-2.54,1.01s-1.93-0.4-2.54-1.01c-0.9-0.92-1.08-2.16-1.08-3.53s0.18-2.61,1.08-3.53
		c0.61-0.61,1.46-1.01,2.54-1.01s1.93,0.4,2.54,1.01c0.9,0.92,1.08,2.16,1.08,3.53S470.32,437.32,469.42,438.24z M468.51,431.97
		c-0.41-0.41-0.99-0.65-1.62-0.65c-0.63,0-1.19,0.23-1.6,0.65c-0.65,0.65-0.72,1.75-0.72,2.74s0.07,2.09,0.72,2.74
		c0.41,0.41,0.97,0.65,1.6,0.65c0.63,0,1.21-0.23,1.62-0.65c0.65-0.65,0.7-1.75,0.7-2.74S469.15,432.62,468.51,431.97z"/>
	<path d="M479.23,438.47c-0.47,0.47-1.26,0.77-2.16,0.77c-0.97,0-1.78-0.23-2.5-1.15v5.01h-1.3v-12.82h1.3v1.04
		c0.72-0.94,1.53-1.15,2.5-1.15c0.9,0,1.69,0.31,2.16,0.77c0.9,0.9,1.08,2.38,1.08,3.76S480.13,437.57,479.23,438.47z M476.8,431.32
		c-1.93,0-2.23,1.66-2.23,3.38s0.31,3.38,2.23,3.38c1.93,0,2.21-1.66,2.21-3.38S478.73,431.32,476.8,431.32z"/>
	<path d="M485.28,441.28c-0.18,0.49-0.38,0.81-0.63,1.04c-0.47,0.45-1.1,0.61-1.73,0.61h-0.56v-1.15h0.4c0.9,0,1.17-0.29,1.46-1.1
		l0.63-1.73l-3.19-8.68h1.4l2.43,7.11l2.41-7.11h1.41L485.28,441.28z"/>
	<path d="M408.7,462.43c-0.58-0.58-0.97-0.95-1.3-1.55c-0.32-0.59-0.38-1.22-0.38-1.85v-9.4c0-0.63,0.05-1.26,0.38-1.85
		c0.32-0.59,0.72-0.97,1.3-1.55l0.88,0.88c-0.41,0.41-0.74,0.7-0.97,1.17c-0.18,0.36-0.29,0.86-0.29,1.46v9.18
		c0,0.59,0.11,1.1,0.29,1.46c0.23,0.47,0.56,0.76,0.97,1.17L408.7,462.43z"/>
	<path d="M417.95,460.74v-0.99c-0.63,0.72-1.51,1.1-2.5,1.1c-0.95,0-1.75-0.29-2.29-0.83c-0.63-0.61-0.9-1.46-0.9-2.49v-5.65h1.3
		v5.46c0,1.57,0.83,2.36,2.16,2.36s2.21-0.81,2.21-2.36v-5.46h1.3v8.86H417.95z"/>
	<path d="M425.26,460.85c-1.49,0-2.67-0.34-3.64-1.28l0.86-0.86c0.7,0.74,1.66,1.03,2.75,1.03c1.46,0,2.36-0.52,2.36-1.57
		c0-0.77-0.45-1.21-1.48-1.3l-1.46-0.13c-1.73-0.14-2.65-0.92-2.65-2.38c0-1.62,1.37-2.59,3.26-2.59c1.26,0,2.4,0.31,3.19,0.96
		l-0.85,0.85c-0.63-0.49-1.44-0.7-2.36-0.7c-1.3,0-1.98,0.56-1.98,1.46c0,0.76,0.43,1.21,1.55,1.3l1.42,0.13
		c1.55,0.14,2.61,0.74,2.61,2.39C428.86,459.86,427.4,460.85,425.26,460.85z"/>
	<path d="M431.33,449.36v-1.46h1.46v1.46H431.33z M431.4,460.74v-8.86h1.3v8.86H431.4z"/>
	<path d="M441.62,460.74v-5.46c0-1.57-0.85-2.36-2.18-2.36s-2.2,0.81-2.2,2.36v5.46h-1.3v-8.86h1.3v0.97
		c0.63-0.72,1.49-1.08,2.48-1.08c0.95,0,1.73,0.29,2.27,0.83c0.63,0.61,0.92,1.44,0.92,2.47v5.67H441.62z"/>
	<path d="M448.91,464.81c-1.33,0-2.07-0.34-3.01-1.19l0.85-0.83c0.65,0.58,1.1,0.88,2.12,0.88c1.71,0,2.43-1.21,2.43-2.72v-1.39
		c-0.72,0.92-1.53,1.15-2.48,1.15c-0.9,0-1.67-0.32-2.14-0.79c-0.88-0.88-1.08-2.25-1.08-3.69s0.2-2.81,1.08-3.69
		c0.47-0.47,1.26-0.77,2.16-0.77c0.97,0,1.76,0.22,2.48,1.15v-1.04h1.28v9.13C452.6,463.2,451.23,464.81,448.91,464.81z
		 M449.11,452.92c-1.93,0-2.21,1.66-2.21,3.31s0.29,3.31,2.21,3.31c1.93,0,2.2-1.66,2.2-3.31S451.04,452.92,449.11,452.92z"/>
	<path d="M464.55,460.85c-1.26,0-2.41-0.47-3.28-1.33c-1.21-1.21-1.21-2.47-1.21-5.19c0-2.72,0-3.98,1.21-5.19
		c0.86-0.86,2.02-1.33,3.28-1.33c2.3,0,4.02,1.4,4.45,3.82h-1.41c-0.34-1.57-1.44-2.59-3.04-2.59c-0.85,0-1.66,0.32-2.21,0.9
		c-0.81,0.83-0.9,1.71-0.9,4.39c0,2.68,0.09,3.57,0.9,4.39c0.56,0.58,1.37,0.9,2.21,0.9c1.6,0,2.74-1.03,3.08-2.59H469
		C468.59,459.44,466.84,460.85,464.55,460.85z"/>
	<path d="M476.79,455.46h-3.4v5.28h-1.37v-12.82h4.77c2.34,0,3.96,1.46,3.96,3.76S479.13,455.46,476.79,455.46z M476.67,449.14
		h-3.28v5.1h3.28c1.6,0,2.72-0.86,2.72-2.56S478.27,449.14,476.67,449.14z"/>
	<path d="M487.65,460.85c-2.59,0-4.46-1.78-4.46-4.34v-8.59h1.37v8.48c0,1.94,1.22,3.22,3.1,3.22c1.87,0,3.12-1.28,3.12-3.22v-8.48
		h1.37v8.59C492.13,459.06,490.24,460.85,487.65,460.85z"/>
	<path d="M497.13,460.88c-0.32,0.59-0.72,0.97-1.3,1.55l-0.92-0.92c0.41-0.41,0.76-0.7,0.99-1.17c0.18-0.36,0.25-0.85,0.25-1.42
		v-9.18c0-0.58-0.07-1.06-0.25-1.42c-0.23-0.47-0.58-0.76-0.99-1.17l0.92-0.92c0.58,0.58,0.97,0.95,1.3,1.55
		c0.32,0.59,0.36,1.22,0.36,1.85v9.4C497.49,459.66,497.46,460.29,497.13,460.88z"/>
</g>
<g>
	<g>
		<path d="M386.67,222.26v-5.85h-6.09v5.85h-1.37v-12.82h1.37v5.74h6.09v-5.74h1.37v12.82H386.67z"/>
		<path d="M391.11,222.26v-1.15l5.06-6.43c0.49-0.63,0.72-1.19,0.72-1.89c0-1.39-0.83-2.3-2.23-2.3c-1.19,0-2.23,0.67-2.23,2.32
			h-1.3c0-2.02,1.39-3.48,3.53-3.48c2.11,0,3.53,1.35,3.53,3.46c0,1.03-0.32,1.69-1.03,2.59l-4.48,5.73h5.51v1.15H391.11z"/>
		<path d="M408.77,221.07c-0.77,0.77-1.91,1.19-3.24,1.19h-4.39v-12.82h4.39c1.33,0,2.47,0.41,3.24,1.19
			c1.33,1.33,1.26,3.29,1.26,5.08S410.1,219.74,408.77,221.07z M407.82,211.6c-0.67-0.68-1.53-0.94-2.52-0.94h-2.79v10.37h2.79
			c0.99,0,1.85-0.25,2.52-0.94c0.88-0.92,0.85-2.83,0.85-4.39S408.7,212.52,407.82,211.6z"/>
	</g>
	<g>
		<path d="M522.48,221.07c-0.77,0.77-1.91,1.19-3.24,1.19h-4.39v-12.82h4.39c1.33,0,2.47,0.41,3.24,1.19
			c1.33,1.33,1.26,3.29,1.26,5.08S523.81,219.74,522.48,221.07z M521.52,211.6c-0.67-0.68-1.53-0.94-2.52-0.94h-2.79v10.37H519
			c0.99,0,1.85-0.25,2.52-0.94c0.88-0.92,0.85-2.83,0.85-4.39S522.41,212.52,521.52,211.6z"/>
		<path d="M526.33,222.26v-1.15l5.06-6.43c0.49-0.63,0.72-1.19,0.72-1.89c0-1.39-0.83-2.3-2.23-2.3c-1.19,0-2.23,0.67-2.23,2.32
			h-1.3c0-2.02,1.39-3.48,3.53-3.48c2.11,0,3.53,1.35,3.53,3.46c0,1.03-0.32,1.69-1.03,2.59l-4.48,5.73h5.51v1.15H526.33z"/>
		<path d="M543.81,222.26v-5.85h-6.08v5.85h-1.37v-12.82h1.37v5.74h6.08v-5.74h1.37v12.82H543.81z"/>
	</g>
</g>
</svg>
