<?xml version="1.0" encoding="utf-8"?>
<!-- Generator: Adobe Illustrator 25.3.1, SVG Export Plug-In . SVG Version: 6.00 Build 0)  -->
<svg version="1.1" id="Layer_1" xmlns="http://www.w3.org/2000/svg" xmlns:xlink="http://www.w3.org/1999/xlink" x="0px" y="0px"
	 viewBox="0 0 807.87 486" style="enable-background:new 0 0 807.87 486;" xml:space="preserve">
<style type="text/css">
	.st0{clip-path:url(#SVGID_2_);fill:none;stroke:#BFBFBF;stroke-width:0.5;stroke-linejoin:round;stroke-miterlimit:10;}
	
		.st1{clip-path:url(#SVGID_4_);fill:none;stroke:#767171;stroke-width:2.25;stroke-linecap:round;stroke-linejoin:round;stroke-miterlimit:10;}
	
		.st2{clip-path:url(#SVGID_6_);fill:none;stroke:#70AD47;stroke-width:2.25;stroke-linecap:round;stroke-linejoin:round;stroke-miterlimit:10;}
	.st3{clip-path:url(#SVGID_8_);}
	.st4{fill:#6E6E6E;}
	.st5{font-family:'DINPro-Regular';}
	.st6{font-size:13px;}
	.st7{clip-path:url(#SVGID_10_);}
	.st8{clip-path:url(#SVGID_12_);}
	.st9{clip-path:url(#SVGID_14_);}
	.st10{clip-path:url(#SVGID_16_);}
	.st11{clip-path:url(#SVGID_18_);}
	.st12{clip-path:url(#SVGID_20_);}
	.st13{clip-path:url(#SVGID_22_);}
	.st14{clip-path:url(#SVGID_24_);}
	.st15{clip-path:url(#SVGID_26_);}
	.st16{clip-path:url(#SVGID_28_);}
	.st17{clip-path:url(#SVGID_30_);}
	.st18{clip-path:url(#SVGID_32_);}
	.st19{clip-path:url(#SVGID_34_);}
	.st20{clip-path:url(#SVGID_36_);}
	.st21{clip-path:url(#SVGID_38_);}
	.st22{clip-path:url(#SVGID_40_);}
	.st23{clip-path:url(#SVGID_42_);}
	.st24{clip-path:url(#SVGID_44_);}
	.st25{clip-path:url(#SVGID_46_);}
	.st26{clip-path:url(#SVGID_48_);}
	.st27{clip-path:url(#SVGID_50_);}
	.st28{font-size:16px;}
	.st29{clip-path:url(#SVGID_52_);}
	.st30{clip-path:url(#SVGID_54_);fill:none;stroke:#B3B3B3;stroke-width:0.5;stroke-linejoin:round;stroke-miterlimit:10;}
	
		.st31{clip-path:url(#SVGID_56_);fill:none;stroke:#5A5A5A;stroke-width:2;stroke-linecap:round;stroke-linejoin:round;stroke-miterlimit:10;}
	
		.st32{clip-path:url(#SVGID_58_);fill:none;stroke:#76B900;stroke-width:2;stroke-linecap:round;stroke-linejoin:round;stroke-miterlimit:10;}
	.st33{clip-path:url(#SVGID_60_);}
	.st34{clip-path:url(#SVGID_62_);}
	.st35{clip-path:url(#SVGID_64_);}
	.st36{clip-path:url(#SVGID_66_);}
	.st37{clip-path:url(#SVGID_68_);}
	.st38{clip-path:url(#SVGID_70_);}
	.st39{clip-path:url(#SVGID_72_);}
	.st40{clip-path:url(#SVGID_74_);}
	.st41{clip-path:url(#SVGID_76_);}
	.st42{clip-path:url(#SVGID_78_);}
	.st43{clip-path:url(#SVGID_80_);}
	.st44{clip-path:url(#SVGID_82_);}
	.st45{clip-path:url(#SVGID_84_);}
	.st46{clip-path:url(#SVGID_86_);}
	.st47{clip-path:url(#SVGID_88_);}
	.st48{clip-path:url(#SVGID_90_);}
	.st49{clip-path:url(#SVGID_92_);}
	.st50{clip-path:url(#SVGID_94_);}
	.st51{clip-path:url(#SVGID_96_);}
	.st52{clip-path:url(#SVGID_98_);}
	.st53{clip-path:url(#SVGID_100_);}
	.st54{clip-path:url(#SVGID_102_);}
	.st55{clip-path:url(#SVGID_104_);}
	.st56{fill:#76B900;}
	.st57{fill:#404040;}
	.st58{fill:none;stroke:#6E6E6E;stroke-width:2.25;stroke-linejoin:round;stroke-miterlimit:10;}
	.st59{fill:none;stroke:#76B900;stroke-width:2.25;stroke-linejoin:round;stroke-miterlimit:10;}
	.st60{fill:none;stroke:#BFBFBF;stroke-width:0.5;stroke-linejoin:round;stroke-miterlimit:10;}
</style>
<g>
	<g>
		<g>
			<defs>
				<rect id="SVGID_1_" x="433.94" y="48.96" width="312" height="368.88"/>
			</defs>
			<clipPath id="SVGID_2_">
				<use xlink:href="#SVGID_1_"  style="overflow:visible;"/>
			</clipPath>
			<path class="st0" d="M482.9,94.95h252.11 M482.9,126.72h252.11 M482.9,158.64h252.11 M482.9,190.32h252.11 M482.9,222.24h252.11
				 M482.9,253.92h252.11 M482.9,285.84h252.11 M482.9,317.52h252.11 M482.9,349.36h252.11"/>
		</g>
	</g>
</g>
<g>
	<g>
		<g>
			<defs>
				<rect id="SVGID_3_" x="481.94" y="93.84" width="252.96" height="256.08"/>
			</defs>
			<clipPath id="SVGID_4_">
				<use xlink:href="#SVGID_3_"  style="overflow:visible;"/>
			</clipPath>
			<polyline class="st1" points="488.9,326.64 500.9,326.88 512.9,326.64 524.9,326.64 536.9,326.64 548.9,326.96 560.9,326.64 
				572.9,325.92 584.9,326.4 596.9,326.16 608.9,325.92 620.9,326.64 632.9,326.16 644.9,325.68 656.9,323.28 668.9,319.2 
				680.9,311.04 692.9,294.96 704.9,262.08 716.9,194.4 729.01,60.43 			"/>
		</g>
	</g>
</g>
<g>
	<g>
		<g>
			<defs>
				<rect id="SVGID_5_" x="481.94" y="93.84" width="252.96" height="256.08"/>
			</defs>
			<clipPath id="SVGID_6_">
				<use xlink:href="#SVGID_5_"  style="overflow:visible;"/>
			</clipPath>
			<polyline class="st2" points="488.9,345.6 500.9,343.44 512.9,343.44 524.9,343.44 536.9,346.43 548.9,343.44 560.9,338.64 
				572.9,336.96 584.9,337.92 596.9,338.16 608.9,338.16 620.9,331.92 632.9,321.12 644.9,297.36 656.9,251.28 668.9,153.84 
				680.9,-33.36 692.9,-432.48 704.9,-1306.8 716.9,-2955.36 729.01,-6253.81 			"/>
		</g>
	</g>
</g>
<g>
	<g>
		<g>
			<defs>
				<rect id="SVGID_7_" x="433.94" y="48.96" width="312" height="368.88"/>
			</defs>
			<clipPath id="SVGID_8_">
				<use xlink:href="#SVGID_7_"  style="overflow:visible;"/>
			</clipPath>
			<g class="st3">
				<text transform="matrix(1 0 0 1 463.2944 354.7197)" class="st4 st5 st6">0</text>
			</g>
		</g>
	</g>
</g>
<g>
	<g>
		<g>
			<defs>
				<rect id="SVGID_9_" x="433.94" y="48.96" width="312" height="368.88"/>
			</defs>
			<clipPath id="SVGID_10_">
				<use xlink:href="#SVGID_9_"  style="overflow:visible;"/>
			</clipPath>
			<g class="st7">
				<text transform="matrix(1 0 0 1 456.5093 322.7998)" class="st4 st5 st6">10</text>
			</g>
		</g>
	</g>
</g>
<g>
	<g>
		<g>
			<defs>
				<rect id="SVGID_11_" x="433.94" y="48.96" width="312" height="368.88"/>
			</defs>
			<clipPath id="SVGID_12_">
				<use xlink:href="#SVGID_11_"  style="overflow:visible;"/>
			</clipPath>
			<g class="st8">
				<text transform="matrix(1 0 0 1 456.5093 291.1201)" class="st4 st5 st6">20</text>
			</g>
		</g>
	</g>
</g>
<g>
	<g>
		<g>
			<defs>
				<rect id="SVGID_13_" x="433.94" y="48.96" width="312" height="368.88"/>
			</defs>
			<clipPath id="SVGID_14_">
				<use xlink:href="#SVGID_13_"  style="overflow:visible;"/>
			</clipPath>
			<g class="st9">
				<text transform="matrix(1 0 0 1 456.5093 259.2002)" class="st4 st5 st6">30</text>
			</g>
		</g>
	</g>
</g>
<g>
	<g>
		<g>
			<defs>
				<rect id="SVGID_15_" x="433.94" y="48.96" width="312" height="368.88"/>
			</defs>
			<clipPath id="SVGID_16_">
				<use xlink:href="#SVGID_15_"  style="overflow:visible;"/>
			</clipPath>
			<g class="st10">
				<text transform="matrix(1 0 0 1 456.5093 227.5195)" class="st4 st5 st6">40</text>
			</g>
		</g>
	</g>
</g>
<g>
	<g>
		<g>
			<defs>
				<rect id="SVGID_17_" x="433.94" y="48.96" width="312" height="368.88"/>
			</defs>
			<clipPath id="SVGID_18_">
				<use xlink:href="#SVGID_17_"  style="overflow:visible;"/>
			</clipPath>
			<g class="st11">
				<text transform="matrix(1 0 0 1 456.5093 195.5996)" class="st4 st5 st6">50</text>
			</g>
		</g>
	</g>
</g>
<g>
	<g>
		<g>
			<defs>
				<rect id="SVGID_19_" x="433.94" y="48.96" width="312" height="368.88"/>
			</defs>
			<clipPath id="SVGID_20_">
				<use xlink:href="#SVGID_19_"  style="overflow:visible;"/>
			</clipPath>
			<g class="st12">
				<text transform="matrix(1 0 0 1 456.5093 163.9199)" class="st4 st5 st6">60</text>
			</g>
		</g>
	</g>
</g>
<g>
	<g>
		<g>
			<defs>
				<rect id="SVGID_21_" x="433.94" y="48.96" width="312" height="368.88"/>
			</defs>
			<clipPath id="SVGID_22_">
				<use xlink:href="#SVGID_21_"  style="overflow:visible;"/>
			</clipPath>
			<g class="st13">
				<text transform="matrix(1 0 0 1 456.5093 132)" class="st4 st5 st6">70</text>
			</g>
		</g>
	</g>
</g>
<g>
	<g>
		<g>
			<defs>
				<rect id="SVGID_23_" x="433.94" y="48.96" width="312" height="368.88"/>
			</defs>
			<clipPath id="SVGID_24_">
				<use xlink:href="#SVGID_23_"  style="overflow:visible;"/>
			</clipPath>
			<g class="st14">
				<text transform="matrix(1 0 0 1 456.5093 100.3203)" class="st4 st5 st6">80</text>
			</g>
		</g>
	</g>
</g>
<g>
	<g>
		<g>
			<defs>
				<rect id="SVGID_25_" x="433.94" y="48.96" width="312" height="368.88"/>
			</defs>
			<clipPath id="SVGID_26_">
				<use xlink:href="#SVGID_25_"  style="overflow:visible;"/>
			</clipPath>
			<g class="st15">
				<path class="st4" d="M494.59,373.69h-8.22l1.52,1.73h-1.07l-1.5-1.73v-0.94h9.26v0.94H494.59z"/>
				<path class="st4" d="M494.59,362.1v3.6h-9.26v-3.48c0-1.61,0.92-2.73,2.47-2.73c0.97,0,1.74,0.58,2.03,1.37
					c0.32-0.88,1.09-1.51,2.2-1.51C493.71,359.35,494.59,360.46,494.59,362.1z M486.22,362.3v2.42h3.21v-2.42
					c0-1.03-0.51-1.82-1.61-1.82C486.72,360.48,486.22,361.27,486.22,362.3z M490.32,362.19v2.52h3.39v-2.52
					c0-1.14-0.66-1.86-1.7-1.86S490.32,361.05,490.32,362.19z"/>
			</g>
		</g>
	</g>
</g>
<g>
	<g>
		<g>
			<defs>
				<rect id="SVGID_27_" x="433.94" y="48.96" width="312" height="368.88"/>
			</defs>
			<clipPath id="SVGID_28_">
				<use xlink:href="#SVGID_27_"  style="overflow:visible;"/>
			</clipPath>
			<g class="st16">
				<path class="st4" d="M517.14,371.91h1.47v0.92h-1.47v3.69h-0.85l-6.94-3.34v-1l6.94,3.34v-2.69h-2.63v-0.92h2.63v-1.13h0.85
					V371.91z"/>
				<path class="st4" d="M518.6,362.1v3.6h-9.26v-3.48c0-1.61,0.92-2.73,2.47-2.73c0.97,0,1.74,0.58,2.03,1.37
					c0.32-0.88,1.09-1.51,2.2-1.51C517.72,359.35,518.6,360.46,518.6,362.1z M510.23,362.3v2.42h3.21v-2.42
					c0-1.03-0.51-1.82-1.61-1.82C510.73,360.48,510.23,361.27,510.23,362.3z M514.33,362.19v2.52h3.39v-2.52
					c0-1.14-0.66-1.86-1.7-1.86S514.33,361.05,514.33,362.19z"/>
			</g>
		</g>
	</g>
</g>
<g>
	<g>
		<g>
			<defs>
				<rect id="SVGID_29_" x="433.94" y="48.96" width="312" height="368.88"/>
			</defs>
			<clipPath id="SVGID_30_">
				<use xlink:href="#SVGID_29_"  style="overflow:visible;"/>
			</clipPath>
			<g class="st17">
				<path class="st4" d="M542.61,380.41h-8.22l1.52,1.73h-1.07l-1.49-1.73v-0.94h9.26L542.61,380.41L542.61,380.41z"/>
				<path class="st4" d="M542.69,373.35c0,1.57-1.07,2.57-2.67,2.57c-0.66,0-1.3-0.2-2.08-0.58l-4.59-2.28v-0.96l4.16,2.07
					c-0.13-0.29-0.2-0.61-0.2-0.97c0-1.44,1.1-2.41,2.63-2.41C541.52,370.79,542.69,371.77,542.69,373.35z M538.12,373.36
					c0,0.99,0.73,1.62,1.87,1.62c1.13,0,1.87-0.64,1.87-1.62s-0.74-1.64-1.87-1.64C538.96,371.72,538.12,372.29,538.12,373.36z"/>
				<path class="st4" d="M542.61,361.83v3.6h-9.26v-3.48c0-1.61,0.92-2.73,2.47-2.73c0.97,0,1.74,0.59,2.03,1.37
					c0.32-0.88,1.09-1.51,2.2-1.51C541.73,359.07,542.61,360.19,542.61,361.83z M534.24,362.03v2.42h3.21v-2.42
					c0-1.03-0.51-1.82-1.61-1.82C534.74,360.21,534.24,361,534.24,362.03z M538.34,361.92v2.52h3.39v-2.52
					c0-1.14-0.66-1.86-1.7-1.86S538.34,360.78,538.34,361.92z"/>
			</g>
		</g>
	</g>
</g>
<g>
	<g>
		<g>
			<defs>
				<rect id="SVGID_31_" x="433.94" y="48.96" width="312" height="368.88"/>
			</defs>
			<clipPath id="SVGID_32_">
				<use xlink:href="#SVGID_31_"  style="overflow:visible;"/>
			</clipPath>
			<g class="st18">
				<path class="st4" d="M566.7,380.34c0,1.57-1.07,2.57-2.67,2.57c-0.66,0-1.3-0.2-2.08-0.58l-4.59-2.28v-0.96l4.16,2.07
					c-0.13-0.29-0.2-0.61-0.2-0.97c0-1.44,1.1-2.41,2.63-2.41C565.53,377.78,566.7,378.77,566.7,380.34z M562.13,380.35
					c0,0.99,0.73,1.62,1.87,1.62c1.13,0,1.87-0.64,1.87-1.62s-0.74-1.64-1.87-1.64C562.97,378.72,562.13,379.29,562.13,380.35z"/>
				<path class="st4" d="M565.16,371.63h1.47v0.92h-1.47v3.69h-0.85l-6.94-3.34v-1l6.94,3.34v-2.69h-2.63v-0.92h2.63v-1.13h0.85
					V371.63z"/>
				<path class="st4" d="M566.62,361.83v3.6h-9.26v-3.48c0-1.61,0.92-2.73,2.47-2.73c0.97,0,1.74,0.59,2.03,1.37
					c0.32-0.88,1.09-1.51,2.2-1.51C565.74,359.07,566.62,360.19,566.62,361.83z M558.25,362.03v2.42h3.21v-2.42
					c0-1.03-0.51-1.82-1.61-1.82C558.75,360.21,558.25,361,558.25,362.03z M562.35,361.92v2.52h3.39v-2.52
					c0-1.14-0.66-1.86-1.7-1.86S562.35,360.78,562.35,361.92z"/>
			</g>
		</g>
	</g>
</g>
<g>
	<g>
		<g>
			<defs>
				<rect id="SVGID_33_" x="433.94" y="48.96" width="312" height="368.88"/>
			</defs>
			<clipPath id="SVGID_34_">
				<use xlink:href="#SVGID_33_"  style="overflow:visible;"/>
			</clipPath>
			<g class="st19">
				<path class="st4" d="M590.64,389.84h-0.83l-4.64-3.65c-0.45-0.35-0.86-0.52-1.36-0.52c-1,0-1.66,0.6-1.66,1.61
					c0,0.86,0.48,1.61,1.68,1.61v0.94c-1.46,0-2.51-1-2.51-2.55c0-1.52,0.97-2.55,2.5-2.55c0.74,0,1.22,0.23,1.87,0.74l4.13,3.24
					v-3.98h0.83v5.11L590.64,389.84L590.64,389.84z"/>
				<path class="st4" d="M590.04,378.46c0.43,0.43,0.69,1.03,0.69,1.85c0,0.81-0.26,1.46-0.66,1.86c-0.42,0.4-0.95,0.6-1.61,0.65
					v-0.94c0.92-0.12,1.44-0.6,1.44-1.57c0-0.46-0.16-0.87-0.43-1.14c-0.48-0.48-1.22-0.51-1.88-0.51c-1.13,0-2.25,0.22-2.25,1.56
					c0,0.81,0.36,1.35,0.91,1.53v0.85h-4.86v-4.68h0.83v3.83h2.94c-0.4-0.36-0.64-0.94-0.64-1.66c0-0.69,0.22-1.23,0.58-1.6
					c0.68-0.68,1.61-0.77,2.48-0.77C588.5,377.72,589.38,377.8,590.04,378.46z"/>
				<path class="st4" d="M590.71,373.31c0,1.57-1.07,2.57-2.67,2.57c-0.66,0-1.3-0.2-2.08-0.58l-4.59-2.28v-0.96l4.16,2.07
					c-0.13-0.29-0.2-0.61-0.2-0.97c0-1.44,1.1-2.41,2.63-2.41C589.54,370.75,590.71,371.74,590.71,373.31z M586.14,373.33
					c0,0.99,0.73,1.62,1.87,1.62c1.13,0,1.87-0.64,1.87-1.62s-0.74-1.64-1.87-1.64C586.98,371.69,586.14,372.26,586.14,373.33z"/>
				<path class="st4" d="M590.64,361.8v3.6h-9.26v-3.48c0-1.61,0.92-2.73,2.47-2.73c0.97,0,1.74,0.58,2.03,1.37
					c0.32-0.88,1.09-1.51,2.2-1.51C589.75,359.04,590.64,360.16,590.64,361.8z M582.26,361.99v2.42h3.21v-2.42
					c0-1.03-0.51-1.82-1.61-1.82C582.76,360.17,582.26,360.96,582.26,361.99z M586.36,361.89v2.52h3.39v-2.52
					c0-1.14-0.66-1.86-1.7-1.86S586.36,360.74,586.36,361.89z"/>
			</g>
		</g>
	</g>
</g>
<g>
	<g>
		<g>
			<defs>
				<rect id="SVGID_35_" x="433.94" y="48.96" width="312" height="368.88"/>
			</defs>
			<clipPath id="SVGID_36_">
				<use xlink:href="#SVGID_35_"  style="overflow:visible;"/>
			</clipPath>
			<g class="st20">
				<path class="st4" d="M614.65,382.09h-8.22l1.52,1.73h-1.07l-1.49-1.73v-0.94h9.26L614.65,382.09L614.65,382.09z"/>
				<path class="st4" d="M614.65,368.34l-4.93,2.82l2.34,1.95h2.59v0.99h-9.26v-0.99h5.32l-5.32-4.32v-1.21l3.57,2.91l5.68-3.33
					L614.65,368.34L614.65,368.34z"/>
				<path class="st4" d="M614.65,362.5v3.6h-9.26v-3.48c0-1.61,0.92-2.73,2.47-2.73c0.97,0,1.74,0.58,2.03,1.37
					c0.32-0.88,1.09-1.51,2.2-1.51C613.76,359.74,614.65,360.86,614.65,362.5z M606.27,362.69v2.42h3.21v-2.42
					c0-1.03-0.51-1.82-1.61-1.82C606.77,360.87,606.27,361.66,606.27,362.69z M610.37,362.59v2.52h3.39v-2.52
					c0-1.14-0.66-1.86-1.7-1.86S610.37,361.44,610.37,362.59z"/>
			</g>
		</g>
	</g>
</g>
<g>
	<g>
		<g>
			<defs>
				<rect id="SVGID_37_" x="433.94" y="48.96" width="312" height="368.88"/>
			</defs>
			<clipPath id="SVGID_38_">
				<use xlink:href="#SVGID_37_"  style="overflow:visible;"/>
			</clipPath>
			<g class="st21">
				<path class="st4" d="M637.19,380.31h1.47v0.92h-1.47v3.69h-0.85l-6.94-3.34v-1l6.94,3.34v-2.69h-2.63v-0.92h2.63v-1.13h0.85
					V380.31z"/>
				<path class="st4" d="M638.66,368.34l-4.93,2.82l2.34,1.95h2.59v0.99h-9.26v-0.99h5.32l-5.32-4.32v-1.21l3.58,2.91l5.68-3.33
					L638.66,368.34L638.66,368.34z"/>
				<path class="st4" d="M638.66,362.5v3.6h-9.26v-3.48c0-1.61,0.92-2.73,2.47-2.73c0.97,0,1.74,0.58,2.03,1.37
					c0.32-0.88,1.09-1.51,2.2-1.51C637.77,359.74,638.66,360.86,638.66,362.5z M630.28,362.69v2.42h3.21v-2.42
					c0-1.03-0.51-1.82-1.61-1.82C630.78,360.87,630.28,361.66,630.28,362.69z M634.38,362.59v2.52h3.39v-2.52
					c0-1.14-0.66-1.86-1.7-1.86S634.38,361.44,634.38,362.59z"/>
			</g>
		</g>
	</g>
</g>
<g>
	<g>
		<g>
			<defs>
				<rect id="SVGID_39_" x="433.94" y="48.96" width="312" height="368.88"/>
			</defs>
			<clipPath id="SVGID_40_">
				<use xlink:href="#SVGID_39_"  style="overflow:visible;"/>
			</clipPath>
			<g class="st22">
				<path class="st4" d="M662.67,389.05h-8.22l1.52,1.73h-1.07l-1.5-1.73v-0.94h9.26L662.67,389.05L662.67,389.05z"/>
				<path class="st4" d="M662.74,381.99c0,1.57-1.07,2.57-2.67,2.57c-0.66,0-1.3-0.2-2.08-0.58l-4.59-2.28v-0.96l4.16,2.07
					c-0.13-0.29-0.19-0.61-0.19-0.98c0-1.44,1.1-2.41,2.63-2.41C661.57,379.43,662.74,380.41,662.74,381.99z M658.17,382
					c0,0.99,0.73,1.62,1.87,1.62c1.13,0,1.87-0.64,1.87-1.62s-0.74-1.64-1.87-1.64C659.01,380.36,658.17,380.93,658.17,382z"/>
				<path class="st4" d="M662.67,368.31l-4.93,2.82l2.34,1.95h2.59v0.99h-9.26v-0.99h5.32l-5.32-4.32v-1.21l3.58,2.91l5.68-3.33
					L662.67,368.31L662.67,368.31z"/>
				<path class="st4" d="M662.67,362.46v3.6h-9.26v-3.48c0-1.61,0.92-2.73,2.47-2.73c0.97,0,1.74,0.58,2.03,1.37
					c0.32-0.88,1.09-1.51,2.2-1.51C661.78,359.71,662.67,360.82,662.67,362.46z M654.29,362.66v2.42h3.21v-2.42
					c0-1.03-0.51-1.82-1.61-1.82C654.79,360.84,654.29,361.63,654.29,362.66z M658.39,362.55v2.52h3.39v-2.52
					c0-1.14-0.66-1.86-1.7-1.86S658.39,361.41,658.39,362.55z"/>
			</g>
		</g>
	</g>
</g>
<g>
	<g>
		<g>
			<defs>
				<rect id="SVGID_41_" x="433.94" y="48.96" width="312" height="368.88"/>
			</defs>
			<clipPath id="SVGID_42_">
				<use xlink:href="#SVGID_41_"  style="overflow:visible;"/>
			</clipPath>
			<g class="st23">
				<path class="st4" d="M686.76,388.98c0,1.57-1.07,2.57-2.67,2.57c-0.66,0-1.3-0.2-2.08-0.58l-4.59-2.28v-0.96l4.16,2.07
					c-0.13-0.29-0.2-0.61-0.2-0.98c0-1.44,1.1-2.41,2.63-2.41C685.59,386.42,686.76,387.41,686.76,388.98z M682.18,388.99
					c0,0.99,0.73,1.62,1.87,1.62c1.13,0,1.87-0.64,1.87-1.62s-0.74-1.64-1.87-1.64C683.02,387.36,682.18,387.93,682.18,388.99z"/>
				<path class="st4" d="M685.21,380.27h1.47v0.92h-1.47v3.69h-0.85l-6.94-3.34v-1l6.94,3.34v-2.69h-2.63v-0.92h2.63v-1.13h0.85
					V380.27z"/>
				<path class="st4" d="M686.68,368.31l-4.93,2.82l2.34,1.95h2.59v0.99h-9.26v-0.99h5.32l-5.32-4.32v-1.21l3.57,2.91l5.68-3.33
					L686.68,368.31L686.68,368.31z"/>
				<path class="st4" d="M686.68,362.46v3.6h-9.26v-3.48c0-1.61,0.92-2.73,2.47-2.73c0.97,0,1.74,0.58,2.03,1.37
					c0.32-0.88,1.09-1.51,2.2-1.51C685.79,359.71,686.68,360.82,686.68,362.46z M678.31,362.66v2.42h3.21v-2.42
					c0-1.03-0.51-1.82-1.61-1.82C678.8,360.84,678.31,361.63,678.31,362.66z M682.4,362.55v2.52h3.39v-2.52
					c0-1.14-0.66-1.86-1.7-1.86S682.4,361.41,682.4,362.55z"/>
			</g>
		</g>
	</g>
</g>
<g>
	<g>
		<g>
			<defs>
				<rect id="SVGID_43_" x="433.94" y="48.96" width="312" height="368.88"/>
			</defs>
			<clipPath id="SVGID_44_">
				<use xlink:href="#SVGID_43_"  style="overflow:visible;"/>
			</clipPath>
			<g class="st24">
				<path class="st4" d="M710.69,398.24h-0.83l-4.64-3.65c-0.46-0.35-0.86-0.52-1.36-0.52c-1,0-1.66,0.6-1.66,1.61
					c0,0.86,0.48,1.61,1.68,1.61v0.94c-1.46,0-2.51-1-2.51-2.55c0-1.52,0.97-2.55,2.5-2.55c0.74,0,1.22,0.23,1.87,0.74l4.13,3.24
					v-3.98h0.83v5.11L710.69,398.24L710.69,398.24z"/>
				<path class="st4" d="M710.09,386.86c0.43,0.43,0.69,1.03,0.69,1.85c0,0.81-0.26,1.46-0.66,1.86c-0.42,0.4-0.95,0.6-1.61,0.65
					v-0.94c0.92-0.12,1.44-0.6,1.44-1.57c0-0.46-0.16-0.87-0.43-1.14c-0.48-0.48-1.22-0.51-1.88-0.51c-1.13,0-2.25,0.22-2.25,1.56
					c0,0.81,0.36,1.35,0.91,1.53V391h-4.86v-4.68h0.83v3.84h2.94c-0.4-0.36-0.64-0.94-0.64-1.66c0-0.69,0.22-1.24,0.58-1.6
					c0.68-0.68,1.61-0.77,2.48-0.77C708.56,386.12,709.43,386.2,710.09,386.86z"/>
				<path class="st4" d="M710.77,381.71c0,1.57-1.07,2.57-2.67,2.57c-0.66,0-1.3-0.2-2.08-0.58l-4.59-2.28v-0.96l4.16,2.07
					c-0.13-0.29-0.19-0.61-0.19-0.98c0-1.44,1.1-2.41,2.63-2.41C709.6,379.15,710.77,380.14,710.77,381.71z M706.19,381.73
					c0,0.99,0.73,1.62,1.87,1.62c1.13,0,1.87-0.64,1.87-1.62s-0.74-1.64-1.87-1.64C707.03,380.09,706.19,380.66,706.19,381.73z"/>
				<path class="st4" d="M710.69,368.04l-4.93,2.82l2.34,1.95h2.59v0.99h-9.26v-0.99h5.32l-5.32-4.32v-1.21l3.58,2.91l5.68-3.33
					L710.69,368.04L710.69,368.04z"/>
				<path class="st4" d="M710.69,362.19v3.6h-9.26v-3.48c0-1.61,0.92-2.73,2.47-2.73c0.97,0,1.74,0.59,2.03,1.37
					c0.32-0.88,1.09-1.51,2.2-1.51C709.8,359.43,710.69,360.55,710.69,362.19z M702.32,362.38v2.42h3.21v-2.42
					c0-1.03-0.51-1.82-1.61-1.82C702.81,360.56,702.32,361.36,702.32,362.38z M706.41,362.28v2.52h3.39v-2.52
					c0-1.14-0.66-1.86-1.7-1.86S706.41,361.13,706.41,362.28z"/>
			</g>
		</g>
	</g>
</g>
<g>
	<g>
		<g>
			<defs>
				<rect id="SVGID_45_" x="433.94" y="48.96" width="312" height="368.88"/>
			</defs>
			<clipPath id="SVGID_46_">
				<use xlink:href="#SVGID_45_"  style="overflow:visible;"/>
			</clipPath>
			<g class="st25">
				<path class="st4" d="M734.7,384.25h-8.22l1.52,1.73h-1.07l-1.5-1.73v-0.94h9.26L734.7,384.25L734.7,384.25z"/>
				<path class="st4" d="M734.7,369.32h-7.03l5.58,2.54v0.84l-5.58,2.57h7.03v0.99h-9.26v-0.99l6.57-3.02l-6.57-2.94v-0.99h9.26
					V369.32z"/>
				<path class="st4" d="M734.7,361.67v3.6h-9.26v-3.48c0-1.61,0.92-2.73,2.47-2.73c0.97,0,1.74,0.58,2.03,1.37
					c0.32-0.88,1.09-1.51,2.2-1.51C733.81,358.91,734.7,360.03,734.7,361.67z M726.33,361.86v2.42h3.21v-2.42
					c0-1.03-0.51-1.82-1.61-1.82C726.82,360.04,726.33,360.83,726.33,361.86z M730.42,361.76v2.52h3.39v-2.52
					c0-1.14-0.66-1.86-1.7-1.86S730.42,360.61,730.42,361.76z"/>
			</g>
		</g>
	</g>
</g>
<g>
	<g>
		<g>
			<defs>
				<rect id="SVGID_47_" x="433.94" y="48.96" width="312" height="368.88"/>
			</defs>
			<clipPath id="SVGID_48_">
				<use xlink:href="#SVGID_47_"  style="overflow:visible;"/>
			</clipPath>
			<g class="st26">
				<path d="M504.96,67.34c-0.69,0.69-1.7,1.06-2.88,1.06h-3.91V57h3.91c1.18,0,2.19,0.37,2.88,1.06c1.18,1.18,1.12,2.93,1.12,4.51
					C506.08,64.16,506.15,66.16,504.96,67.34z M504.11,58.92c-0.59-0.61-1.36-0.83-2.24-0.83h-2.48v9.22h2.48
					c0.88,0,1.65-0.22,2.24-0.83c0.78-0.82,0.75-2.51,0.75-3.91S504.9,59.74,504.11,58.92z"/>
				<path d="M508.38,68.4v-1.02l4.5-5.71c0.43-0.56,0.64-1.06,0.64-1.68c0-1.23-0.74-2.05-1.98-2.05c-1.06,0-1.99,0.59-1.99,2.06
					h-1.15c0-1.79,1.23-3.09,3.14-3.09c1.87,0,3.14,1.2,3.14,3.07c0,0.91-0.29,1.5-0.91,2.31l-3.99,5.09h4.9v1.02H508.38z"/>
				<path d="M523.92,68.4v-5.2h-5.41v5.2h-1.22V57h1.22v5.11h5.41V57h1.22v11.4H523.92z"/>
				<path d="M535.97,68.5c-1.12,0-2.14-0.42-2.91-1.18c-1.07-1.07-1.07-2.19-1.07-4.61s0-3.54,1.07-4.61
					c0.77-0.77,1.79-1.18,2.91-1.18c2.05,0,3.57,1.25,3.95,3.39h-1.25c-0.3-1.39-1.28-2.31-2.71-2.31c-0.75,0-1.47,0.29-1.97,0.8
					c-0.72,0.74-0.8,1.52-0.8,3.91c0,2.38,0.08,3.17,0.8,3.91c0.5,0.51,1.22,0.8,1.97,0.8c1.42,0,2.43-0.91,2.74-2.31h1.22
					C539.55,67.25,538,68.5,535.97,68.5z"/>
				<path d="M547.46,67.6c-0.54,0.54-1.3,0.9-2.26,0.9s-1.71-0.35-2.26-0.9c-0.8-0.82-0.96-1.92-0.96-3.14s0.16-2.32,0.96-3.14
					c0.54-0.54,1.3-0.9,2.26-0.9s1.71,0.35,2.26,0.9c0.8,0.82,0.96,1.92,0.96,3.14C548.42,65.68,548.26,66.78,547.46,67.6z
					 M546.64,62.03c-0.37-0.37-0.88-0.58-1.44-0.58s-1.06,0.21-1.42,0.58c-0.58,0.58-0.64,1.55-0.64,2.43
					c0,0.88,0.06,1.86,0.64,2.43c0.37,0.37,0.86,0.58,1.42,0.58s1.07-0.21,1.44-0.58c0.58-0.58,0.62-1.55,0.62-2.43
					S547.22,62.61,546.64,62.03z"/>
				<path d="M556.18,67.81c-0.42,0.42-1.12,0.69-1.92,0.69c-0.87,0-1.58-0.21-2.23-1.02v4.45h-1.15v-11.4h1.15v0.93
					c0.64-0.83,1.36-1.02,2.23-1.02c0.8,0,1.5,0.27,1.92,0.69c0.8,0.8,0.96,2.11,0.96,3.35S556.98,67.01,556.18,67.81z
					 M554.02,61.45c-1.71,0-1.99,1.47-1.99,3.01c0,1.54,0.27,3.01,1.99,3.01s1.97-1.47,1.97-3.01S555.73,61.45,554.02,61.45z"/>
				<path d="M561.55,70.3c-0.16,0.43-0.34,0.72-0.56,0.93c-0.42,0.4-0.98,0.54-1.54,0.54h-0.5v-1.02h0.35c0.8,0,1.04-0.26,1.3-0.98
					l0.56-1.54l-2.83-7.71h1.25l2.16,6.32l2.15-6.32h1.25L561.55,70.3z"/>
				<path d="M570.94,68.4V57h1.22v10.31h5.83v1.09C577.99,68.4,570.94,68.4,570.94,68.4z"/>
				<path d="M584.37,68.4v-0.75c-0.64,0.64-1.22,0.85-2.27,0.85c-1.09,0-1.73-0.21-2.23-0.72c-0.38-0.38-0.59-0.98-0.59-1.6
					c0-1.38,0.96-2.27,2.72-2.27h2.37v-0.75c0-1.15-0.58-1.73-2.02-1.73c-1.01,0-1.52,0.24-1.99,0.9l-0.78-0.72
					c0.71-0.91,1.5-1.17,2.79-1.17c2.11,0,3.15,0.91,3.15,2.62v5.35h-1.15L584.37,68.4L584.37,68.4z M584.37,64.77h-2.21
					c-1.18,0-1.76,0.48-1.76,1.39c0,0.91,0.56,1.34,1.81,1.34c0.67,0,1.26-0.05,1.76-0.53c0.27-0.26,0.4-0.7,0.4-1.36V64.77z"/>
				<path d="M590.53,68.4c-1.34,0-2.02-0.94-2.02-2.11v-4.83h-0.99v-0.88h0.99v-2.46h1.15v2.46h1.68v0.88h-1.68v4.8
					c0,0.72,0.34,1.15,1.07,1.15h0.61v0.99H590.53z"/>
				<path d="M594.35,64.77c0,1.73,0.82,2.72,2.32,2.72c0.91,0,1.44-0.27,2.07-0.9l0.78,0.69c-0.8,0.8-1.54,1.22-2.88,1.22
					c-2.08,0-3.44-1.25-3.44-4.03c0-2.54,1.23-4.03,3.23-4.03c2.03,0,3.23,1.47,3.23,3.81v0.53h-5.31V64.77z M598.27,62.59
					c-0.3-0.72-1.01-1.18-1.84-1.18s-1.54,0.46-1.84,1.18c-0.18,0.43-0.21,0.67-0.24,1.31h4.16
					C598.48,63.26,598.45,63.02,598.27,62.59z"/>
				<path d="M607.15,68.4v-4.85c0-1.39-0.75-2.1-1.94-2.1s-1.95,0.72-1.95,2.1v4.85h-1.15v-7.88h1.15v0.86
					c0.56-0.64,1.33-0.96,2.21-0.96c0.85,0,1.54,0.26,2.02,0.74c0.56,0.54,0.82,1.28,0.82,2.19v5.04h-1.16L607.15,68.4L607.15,68.4z
					"/>
				<path d="M614.16,68.5c-1.99,0-3.49-1.34-3.49-4.03c0-2.69,1.5-4.03,3.49-4.03c1.09,0,1.78,0.29,2.59,1.17l-0.78,0.74
					c-0.59-0.66-1.06-0.88-1.81-0.88c-0.77,0-1.41,0.3-1.83,0.9c-0.37,0.51-0.51,1.12-0.51,2.11c0,0.99,0.14,1.6,0.51,2.11
					c0.42,0.59,1.06,0.9,1.83,0.9c0.75,0,1.22-0.24,1.81-0.9l0.78,0.75C615.94,68.21,615.25,68.5,614.16,68.5z"/>
				<path d="M620.89,70.3c-0.16,0.43-0.34,0.72-0.56,0.93c-0.42,0.4-0.98,0.54-1.54,0.54h-0.5v-1.02h0.35c0.8,0,1.04-0.26,1.3-0.98
					l0.56-1.54l-2.83-7.71h1.25l2.16,6.32l2.15-6.32h1.25L620.89,70.3z"/>
				<path d="M631.6,69.91c-0.51-0.51-0.86-0.85-1.15-1.38s-0.34-1.09-0.34-1.65v-8.36c0-0.56,0.05-1.12,0.34-1.65
					c0.29-0.53,0.64-0.86,1.15-1.38l0.78,0.78c-0.37,0.37-0.66,0.62-0.86,1.04c-0.16,0.32-0.26,0.77-0.26,1.3v8.16
					c0,0.53,0.1,0.98,0.26,1.3c0.21,0.42,0.5,0.67,0.86,1.04L631.6,69.91z"/>
				<path d="M641.84,67.34c-0.69,0.69-1.7,1.06-2.88,1.06h-3.91V57h3.91c1.18,0,2.19,0.37,2.88,1.06c1.18,1.18,1.12,2.93,1.12,4.51
					C642.96,64.16,643.02,66.16,641.84,67.34z M640.99,58.92c-0.59-0.61-1.36-0.83-2.24-0.83h-2.48v9.22h2.48
					c0.88,0,1.65-0.22,2.24-0.83c0.78-0.82,0.75-2.51,0.75-3.91S641.77,59.74,640.99,58.92z"/>
				<path d="M652.41,67.18c-0.8,0.86-1.87,1.31-3.04,1.31c-1.12,0-2.14-0.42-2.91-1.18c-1.07-1.07-1.07-2.19-1.07-4.61
					s0-3.54,1.07-4.61c0.77-0.77,1.78-1.18,2.91-1.18c2.18,0,3.65,1.41,3.99,3.41h-1.22c-0.32-1.44-1.34-2.32-2.77-2.32
					c-0.75,0-1.47,0.3-1.97,0.82c-0.72,0.74-0.8,1.5-0.8,3.89c0,2.38,0.08,3.17,0.8,3.91c0.5,0.51,1.22,0.8,1.97,0.8
					c0.83,0,1.63-0.34,2.16-0.98c0.46-0.56,0.64-1.18,0.64-2.06V63.5h-2.8v-1.07h4.02v1.81C653.39,65.55,653.12,66.43,652.41,67.18z
					"/>
				<path d="M661.74,68.4l-2.77-4.79l-2.79,4.79h-1.38l3.49-5.84L655.04,57h1.41l2.53,4.5l2.53-4.5h1.41l-3.28,5.55l3.52,5.84h-1.42
					V68.4z"/>
			</g>
		</g>
	</g>
</g>
<g>
	<g>
		<g>
			<defs>
				<rect id="SVGID_49_" x="433.94" y="48.96" width="312" height="368.88"/>
			</defs>
			<clipPath id="SVGID_50_">
				<use xlink:href="#SVGID_49_"  style="overflow:visible;"/>
			</clipPath>
			<g class="st27">
				<text transform="matrix(1 0 0 1 663.3862 68.4004)" class="st5 st28">-</text>
			</g>
		</g>
	</g>
</g>
<g>
	<g>
		<g>
			<defs>
				<rect id="SVGID_51_" x="433.94" y="48.96" width="312" height="368.88"/>
			</defs>
			<clipPath id="SVGID_52_">
				<use xlink:href="#SVGID_51_"  style="overflow:visible;"/>
			</clipPath>
			<g class="st29">
				<path d="M674.33,68.4V58.28l-2.13,1.87v-1.31l2.13-1.84h1.15v11.4C675.48,68.4,674.33,68.4,674.33,68.4z"/>
				<path d="M683.42,68.4h-0.99L678.68,57h1.28l2.96,9.22l2.96-9.22h1.28L683.42,68.4z"/>
				<path d="M690.25,68.53c-0.29,0.53-0.64,0.86-1.15,1.38l-0.82-0.82c0.37-0.37,0.67-0.62,0.88-1.04c0.16-0.32,0.22-0.75,0.22-1.26
					v-8.16c0-0.51-0.06-0.94-0.22-1.26c-0.21-0.42-0.51-0.67-0.88-1.04l0.82-0.82c0.51,0.51,0.86,0.85,1.15,1.38
					c0.29,0.53,0.32,1.09,0.32,1.65v8.36C690.57,67.44,690.54,68,690.25,68.53z"/>
			</g>
		</g>
	</g>
</g>
<g>
	<g>
		<g>
			<defs>
				<rect id="SVGID_53_" x="61.94" y="48.96" width="310.8" height="368.88"/>
			</defs>
			<clipPath id="SVGID_54_">
				<use xlink:href="#SVGID_53_"  style="overflow:visible;"/>
			</clipPath>
			<path class="st30" d="M110.67,95.8h252.11 M110.67,127.44h252.11 M110.67,159.36h252.11 M110.67,191.04h252.11 M110.67,222.72
				h252.11 M110.67,254.4h252.11 M110.67,286.08h252.11 M110.67,318h252.11 M110.67,349.65h252.11"/>
		</g>
	</g>
</g>
<g>
	<g>
		<g>
			<defs>
				<rect id="SVGID_55_" x="109.94" y="94.8" width="252.96" height="255.12"/>
			</defs>
			<clipPath id="SVGID_56_">
				<use xlink:href="#SVGID_55_"  style="overflow:visible;"/>
			</clipPath>
			<polyline class="st31" points="116.67,324.72 128.66,324.76 140.66,324.72 152.66,324.72 164.66,324.72 176.66,324.72 
				188.66,324.72 200.66,324.72 212.66,324.72 224.66,324.72 236.66,324.48 248.66,324.24 260.66,322.8 272.66,320.88 
				284.66,316.32 296.66,316.08 308.66,306.48 320.66,288.48 332.66,250.32 344.66,173.52 356.78,18.75 			"/>
		</g>
	</g>
</g>
<g>
	<g>
		<g>
			<defs>
				<rect id="SVGID_57_" x="109.94" y="94.8" width="252.96" height="255.12"/>
			</defs>
			<clipPath id="SVGID_58_">
				<use xlink:href="#SVGID_57_"  style="overflow:visible;"/>
			</clipPath>
			<polyline class="st32" points="116.67,346.32 128.66,346.32 140.66,346.28 152.66,346.32 164.66,346.08 176.66,346.32 
				188.66,346.32 200.66,346.32 212.66,346.08 224.66,346.08 236.66,345.84 248.66,345.6 260.66,344.88 272.66,343.68 
				284.66,341.28 296.66,336 308.66,325.92 320.66,305.76 332.66,265.2 344.66,184.08 356.78,21.89 			"/>
		</g>
	</g>
</g>
<g>
	<g>
		<g>
			<defs>
				<rect id="SVGID_59_" x="61.94" y="48.96" width="310.8" height="368.88"/>
			</defs>
			<clipPath id="SVGID_60_">
				<use xlink:href="#SVGID_59_"  style="overflow:visible;"/>
			</clipPath>
			<g class="st33">
				<text transform="matrix(1 0 0 1 91.0669 354.96)" class="st4 st5 st6">0</text>
			</g>
		</g>
	</g>
</g>
<g>
	<g>
		<g>
			<defs>
				<rect id="SVGID_61_" x="61.94" y="48.96" width="310.8" height="368.88"/>
			</defs>
			<clipPath id="SVGID_62_">
				<use xlink:href="#SVGID_61_"  style="overflow:visible;"/>
			</clipPath>
			<g class="st34">
				<text transform="matrix(1 0 0 1 84.2817 323.2803)" class="st4 st5 st6">10</text>
			</g>
		</g>
	</g>
</g>
<g>
	<g>
		<g>
			<defs>
				<rect id="SVGID_63_" x="61.94" y="48.96" width="310.8" height="368.88"/>
			</defs>
			<clipPath id="SVGID_64_">
				<use xlink:href="#SVGID_63_"  style="overflow:visible;"/>
			</clipPath>
			<g class="st35">
				<text transform="matrix(1 0 0 1 84.2817 291.3604)" class="st4 st5 st6">20</text>
			</g>
		</g>
	</g>
</g>
<g>
	<g>
		<g>
			<defs>
				<rect id="SVGID_65_" x="61.94" y="48.96" width="310.8" height="368.88"/>
			</defs>
			<clipPath id="SVGID_66_">
				<use xlink:href="#SVGID_65_"  style="overflow:visible;"/>
			</clipPath>
			<g class="st36">
				<text transform="matrix(1 0 0 1 84.2817 259.6797)" class="st4 st5 st6">30</text>
			</g>
		</g>
	</g>
</g>
<g>
	<g>
		<g>
			<defs>
				<rect id="SVGID_67_" x="61.94" y="48.96" width="310.8" height="368.88"/>
			</defs>
			<clipPath id="SVGID_68_">
				<use xlink:href="#SVGID_67_"  style="overflow:visible;"/>
			</clipPath>
			<g class="st37">
				<text transform="matrix(1 0 0 1 84.2817 228)" class="st4 st5 st6">40</text>
			</g>
		</g>
	</g>
</g>
<g>
	<g>
		<g>
			<defs>
				<rect id="SVGID_69_" x="61.94" y="48.96" width="310.8" height="368.88"/>
			</defs>
			<clipPath id="SVGID_70_">
				<use xlink:href="#SVGID_69_"  style="overflow:visible;"/>
			</clipPath>
			<g class="st38">
				<text transform="matrix(1 0 0 1 84.2817 196.3203)" class="st4 st5 st6">50</text>
			</g>
		</g>
	</g>
</g>
<g>
	<g>
		<g>
			<defs>
				<rect id="SVGID_71_" x="61.94" y="48.96" width="310.8" height="368.88"/>
			</defs>
			<clipPath id="SVGID_72_">
				<use xlink:href="#SVGID_71_"  style="overflow:visible;"/>
			</clipPath>
			<g class="st39">
				<text transform="matrix(1 0 0 1 84.2817 164.6396)" class="st4 st5 st6">60</text>
			</g>
		</g>
	</g>
</g>
<g>
	<g>
		<g>
			<defs>
				<rect id="SVGID_73_" x="61.94" y="48.96" width="310.8" height="368.88"/>
			</defs>
			<clipPath id="SVGID_74_">
				<use xlink:href="#SVGID_73_"  style="overflow:visible;"/>
			</clipPath>
			<g class="st40">
				<text transform="matrix(1 0 0 1 84.2817 132.7197)" class="st4 st5 st6">70</text>
			</g>
		</g>
	</g>
</g>
<g>
	<g>
		<g>
			<defs>
				<rect id="SVGID_75_" x="61.94" y="48.96" width="310.8" height="368.88"/>
			</defs>
			<clipPath id="SVGID_76_">
				<use xlink:href="#SVGID_75_"  style="overflow:visible;"/>
			</clipPath>
			<g class="st41">
				<text transform="matrix(1 0 0 1 84.2817 101.04)" class="st4 st5 st6">80</text>
			</g>
		</g>
	</g>
</g>
<g>
	<g>
		<g>
			<defs>
				<rect id="SVGID_77_" x="61.94" y="48.96" width="310.8" height="368.88"/>
			</defs>
			<clipPath id="SVGID_78_">
				<use xlink:href="#SVGID_77_"  style="overflow:visible;"/>
			</clipPath>
			<g class="st42">
				<path class="st4" d="M122.37,373.93h-8.22l1.52,1.73h-1.07l-1.5-1.73v-0.94h9.26v0.94H122.37z"/>
				<path class="st4" d="M122.37,362.34v3.6h-9.26v-3.48c0-1.61,0.92-2.73,2.47-2.73c0.98,0,1.74,0.58,2.03,1.37
					c0.33-0.88,1.09-1.51,2.2-1.51C121.48,359.59,122.37,360.71,122.37,362.34z M113.99,362.54v2.42h3.21v-2.42
					c0-1.03-0.51-1.82-1.61-1.82S113.99,361.51,113.99,362.54z M118.09,362.43v2.52h3.39v-2.52c0-1.14-0.66-1.86-1.7-1.86
					S118.09,361.29,118.09,362.43z"/>
			</g>
		</g>
	</g>
</g>
<g>
	<g>
		<g>
			<defs>
				<rect id="SVGID_79_" x="61.94" y="48.96" width="310.8" height="368.88"/>
			</defs>
			<clipPath id="SVGID_80_">
				<use xlink:href="#SVGID_79_"  style="overflow:visible;"/>
			</clipPath>
			<g class="st43">
				<path class="st4" d="M144.91,372.15h1.47v0.92h-1.47v3.69h-0.84l-6.94-3.34v-1l6.94,3.34v-2.69h-2.63v-0.92h2.63v-1.13h0.84
					V372.15z"/>
				<path class="st4" d="M146.38,362.34v3.6h-9.26v-3.48c0-1.61,0.92-2.73,2.47-2.73c0.98,0,1.74,0.58,2.03,1.37
					c0.33-0.88,1.09-1.51,2.2-1.51C145.49,359.59,146.38,360.71,146.38,362.34z M138,362.54v2.42h3.21v-2.42
					c0-1.03-0.51-1.82-1.61-1.82S138,361.51,138,362.54z M142.1,362.43v2.52h3.39v-2.52c0-1.14-0.66-1.86-1.7-1.86
					S142.1,361.29,142.1,362.43z"/>
			</g>
		</g>
	</g>
</g>
<g>
	<g>
		<g>
			<defs>
				<rect id="SVGID_81_" x="61.94" y="48.96" width="310.8" height="368.88"/>
			</defs>
			<clipPath id="SVGID_82_">
				<use xlink:href="#SVGID_81_"  style="overflow:visible;"/>
			</clipPath>
			<g class="st44">
				<path class="st4" d="M170.39,380.89h-8.22l1.52,1.73h-1.07l-1.5-1.73v-0.94h9.26v0.94H170.39z"/>
				<path class="st4" d="M170.46,373.83c0,1.57-1.07,2.57-2.67,2.57c-0.66,0-1.3-0.2-2.08-0.58l-4.59-2.28v-0.96l4.16,2.07
					c-0.13-0.29-0.19-0.61-0.19-0.98c0-1.44,1.1-2.41,2.63-2.41C169.29,371.27,170.46,372.25,170.46,373.83z M165.89,373.84
					c0,0.99,0.73,1.62,1.87,1.62c1.13,0,1.87-0.64,1.87-1.62s-0.74-1.64-1.87-1.64C166.73,372.2,165.89,372.77,165.89,373.84z"/>
				<path class="st4" d="M170.39,362.31v3.6h-9.26v-3.48c0-1.61,0.92-2.73,2.47-2.73c0.98,0,1.74,0.58,2.03,1.37
					c0.33-0.88,1.09-1.51,2.2-1.51C169.5,359.55,170.39,360.67,170.39,362.31z M162.01,362.5v2.42h3.21v-2.42
					c0-1.03-0.51-1.82-1.61-1.82S162.01,361.48,162.01,362.5z M166.11,362.4v2.52h3.39v-2.52c0-1.14-0.66-1.86-1.7-1.86
					S166.11,361.26,166.11,362.4z"/>
			</g>
		</g>
	</g>
</g>
<g>
	<g>
		<g>
			<defs>
				<rect id="SVGID_83_" x="61.94" y="48.96" width="310.8" height="368.88"/>
			</defs>
			<clipPath id="SVGID_84_">
				<use xlink:href="#SVGID_83_"  style="overflow:visible;"/>
			</clipPath>
			<g class="st45">
				<path class="st4" d="M194.48,380.82c0,1.57-1.07,2.57-2.67,2.57c-0.66,0-1.3-0.2-2.08-0.58l-4.59-2.28v-0.96l4.16,2.07
					c-0.13-0.29-0.19-0.61-0.19-0.98c0-1.44,1.1-2.41,2.63-2.41C193.31,378.26,194.48,379.25,194.48,380.82z M189.9,380.83
					c0,0.99,0.73,1.62,1.87,1.62c1.13,0,1.87-0.64,1.87-1.62s-0.74-1.64-1.87-1.64C190.74,379.2,189.9,379.77,189.9,380.83z"/>
				<path class="st4" d="M192.93,372.11h1.47v0.92h-1.47v3.69h-0.84l-6.94-3.34v-1l6.94,3.34v-2.69h-2.63v-0.92h2.63v-1.13h0.84
					V372.11z"/>
				<path class="st4" d="M194.4,362.31v3.6h-9.26v-3.48c0-1.61,0.92-2.73,2.47-2.73c0.98,0,1.74,0.58,2.03,1.37
					c0.33-0.88,1.09-1.51,2.2-1.51C193.51,359.55,194.4,360.67,194.4,362.31z M186.02,362.5v2.42h3.21v-2.42
					c0-1.03-0.51-1.82-1.61-1.82S186.02,361.48,186.02,362.5z M190.12,362.4v2.52h3.39v-2.52c0-1.14-0.66-1.86-1.7-1.86
					S190.12,361.26,190.12,362.4z"/>
			</g>
		</g>
	</g>
</g>
<g>
	<g>
		<g>
			<defs>
				<rect id="SVGID_85_" x="61.94" y="48.96" width="310.8" height="368.88"/>
			</defs>
			<clipPath id="SVGID_86_">
				<use xlink:href="#SVGID_85_"  style="overflow:visible;"/>
			</clipPath>
			<g class="st46">
				<path class="st4" d="M218.41,390.08h-0.83l-4.64-3.65c-0.46-0.35-0.86-0.52-1.37-0.52c-1,0-1.66,0.6-1.66,1.61
					c0,0.86,0.48,1.61,1.68,1.61v0.94c-1.46,0-2.51-1-2.51-2.55c0-1.52,0.98-2.55,2.5-2.55c0.74,0,1.22,0.23,1.87,0.74l4.13,3.24
					v-3.98h0.83V390.08z"/>
				<path class="st4" d="M217.81,378.7c0.43,0.43,0.69,1.03,0.69,1.85c0,0.81-0.26,1.46-0.66,1.86c-0.42,0.4-0.95,0.6-1.61,0.65
					v-0.94c0.92-0.12,1.44-0.6,1.44-1.57c0-0.46-0.16-0.87-0.43-1.14c-0.48-0.48-1.22-0.51-1.89-0.51c-1.13,0-2.25,0.22-2.25,1.56
					c0,0.81,0.36,1.35,0.91,1.53v0.84h-4.86v-4.68h0.83v3.84h2.94c-0.4-0.36-0.64-0.94-0.64-1.66c0-0.69,0.22-1.24,0.58-1.6
					c0.68-0.68,1.61-0.77,2.48-0.77C216.28,377.96,217.15,378.04,217.81,378.7z"/>
				<path class="st4" d="M218.49,373.55c0,1.57-1.07,2.57-2.67,2.57c-0.66,0-1.3-0.2-2.08-0.58l-4.59-2.28v-0.96l4.16,2.07
					c-0.13-0.29-0.19-0.61-0.19-0.98c0-1.44,1.1-2.41,2.63-2.41C217.32,370.99,218.49,371.98,218.49,373.55z M213.91,373.57
					c0,0.99,0.73,1.62,1.87,1.62c1.13,0,1.87-0.64,1.87-1.62s-0.74-1.64-1.87-1.64C214.75,371.93,213.91,372.5,213.91,373.57z"/>
				<path class="st4" d="M218.41,362.04v3.6h-9.26v-3.48c0-1.61,0.92-2.73,2.47-2.73c0.98,0,1.74,0.59,2.03,1.37
					c0.33-0.88,1.09-1.51,2.2-1.51C217.52,359.28,218.41,360.4,218.41,362.04z M210.04,362.23v2.42h3.21v-2.42
					c0-1.03-0.51-1.82-1.61-1.82C210.53,360.41,210.04,361.2,210.04,362.23z M214.13,362.13v2.52h3.39v-2.52
					c0-1.14-0.66-1.86-1.7-1.86S214.13,360.98,214.13,362.13z"/>
			</g>
		</g>
	</g>
</g>
<g>
	<g>
		<g>
			<defs>
				<rect id="SVGID_87_" x="61.94" y="48.96" width="310.8" height="368.88"/>
			</defs>
			<clipPath id="SVGID_88_">
				<use xlink:href="#SVGID_87_"  style="overflow:visible;"/>
			</clipPath>
			<g class="st47">
				<path class="st4" d="M242.42,382.57h-8.22l1.52,1.73h-1.07l-1.5-1.73v-0.94h9.26v0.94H242.42z"/>
				<path class="st4" d="M242.42,368.82l-4.93,2.82l2.34,1.95h2.59v0.99h-9.26v-0.99h5.32l-5.32-4.32v-1.21l3.58,2.91l5.68-3.33
					V368.82z"/>
				<path class="st4" d="M242.42,362.97v3.6h-9.26v-3.48c0-1.61,0.92-2.73,2.47-2.73c0.98,0,1.74,0.59,2.03,1.37
					c0.33-0.88,1.09-1.51,2.2-1.51C241.53,360.22,242.42,361.34,242.42,362.97z M234.05,363.17v2.42h3.21v-2.42
					c0-1.03-0.51-1.82-1.61-1.82C234.54,361.35,234.05,362.14,234.05,363.17z M238.14,363.07v2.52h3.39v-2.52
					c0-1.14-0.66-1.86-1.7-1.86S238.14,361.92,238.14,363.07z"/>
			</g>
		</g>
	</g>
</g>
<g>
	<g>
		<g>
			<defs>
				<rect id="SVGID_89_" x="61.94" y="48.96" width="310.8" height="368.88"/>
			</defs>
			<clipPath id="SVGID_90_">
				<use xlink:href="#SVGID_89_"  style="overflow:visible;"/>
			</clipPath>
			<g class="st48">
				<path class="st4" d="M264.96,380.79h1.47v0.92h-1.47v3.69h-0.84l-6.94-3.34v-1l6.94,3.34v-2.69h-2.63v-0.92h2.63v-1.13h0.84
					V380.79z"/>
				<path class="st4" d="M266.43,368.82l-4.93,2.82l2.34,1.95h2.59v0.99h-9.26v-0.99h5.32l-5.32-4.32v-1.21l3.58,2.91l5.68-3.33
					L266.43,368.82L266.43,368.82z"/>
				<path class="st4" d="M266.43,362.97v3.6h-9.26v-3.48c0-1.61,0.92-2.73,2.47-2.73c0.98,0,1.74,0.59,2.03,1.37
					c0.33-0.88,1.09-1.51,2.2-1.51C265.54,360.22,266.43,361.34,266.43,362.97z M258.06,363.17v2.42h3.21v-2.42
					c0-1.03-0.51-1.82-1.61-1.82S258.06,362.14,258.06,363.17z M262.15,363.07v2.52h3.39v-2.52c0-1.14-0.66-1.86-1.7-1.86
					S262.15,361.92,262.15,363.07z"/>
			</g>
		</g>
	</g>
</g>
<g>
	<g>
		<g>
			<defs>
				<rect id="SVGID_91_" x="61.94" y="48.96" width="310.8" height="368.88"/>
			</defs>
			<clipPath id="SVGID_92_">
				<use xlink:href="#SVGID_91_"  style="overflow:visible;"/>
			</clipPath>
			<g class="st49">
				<path class="st4" d="M290.44,389.29h-8.22l1.52,1.73h-1.07l-1.49-1.73v-0.94h9.26V389.29z"/>
				<path class="st4" d="M290.52,382.23c0,1.57-1.07,2.57-2.67,2.57c-0.66,0-1.3-0.2-2.08-0.58l-4.59-2.28v-0.96l4.16,2.07
					c-0.13-0.29-0.2-0.61-0.2-0.98c0-1.44,1.1-2.41,2.63-2.41C289.35,379.67,290.52,380.65,290.52,382.23z M285.94,382.24
					c0,0.99,0.73,1.62,1.87,1.62c1.13,0,1.87-0.64,1.87-1.62s-0.74-1.64-1.87-1.64C286.79,380.6,285.94,381.17,285.94,382.24z"/>
				<path class="st4" d="M290.44,368.55l-4.93,2.82l2.34,1.95h2.59v0.99h-9.26v-0.99h5.32l-5.32-4.32v-1.21l3.57,2.91l5.68-3.33
					v1.18L290.44,368.55L290.44,368.55z"/>
				<path class="st4" d="M290.44,362.7v3.6h-9.26v-3.48c0-1.61,0.92-2.73,2.47-2.73c0.97,0,1.74,0.58,2.03,1.37
					c0.32-0.88,1.09-1.51,2.2-1.51C289.56,359.95,290.44,361.06,290.44,362.7z M282.07,362.9v2.42h3.21v-2.42
					c0-1.03-0.51-1.82-1.61-1.82C282.56,361.08,282.07,361.87,282.07,362.9z M286.16,362.79v2.52h3.39v-2.52
					c0-1.14-0.66-1.86-1.7-1.86S286.16,361.65,286.16,362.79z"/>
			</g>
		</g>
	</g>
</g>
<g>
	<g>
		<g>
			<defs>
				<rect id="SVGID_93_" x="61.94" y="48.96" width="310.8" height="368.88"/>
			</defs>
			<clipPath id="SVGID_94_">
				<use xlink:href="#SVGID_93_"  style="overflow:visible;"/>
			</clipPath>
			<g class="st50">
				<path class="st4" d="M314.53,389.22c0,1.57-1.07,2.57-2.67,2.57c-0.66,0-1.3-0.2-2.08-0.58l-4.59-2.28v-0.96l4.16,2.07
					c-0.13-0.29-0.19-0.61-0.19-0.98c0-1.44,1.1-2.41,2.63-2.41C313.36,386.66,314.53,387.65,314.53,389.22z M309.95,389.23
					c0,0.99,0.73,1.62,1.87,1.62c1.13,0,1.87-0.64,1.87-1.62s-0.74-1.64-1.87-1.64C310.8,387.6,309.95,388.17,309.95,389.23z"/>
				<path class="st4" d="M312.98,380.51h1.47v0.92h-1.47v3.69h-0.85l-6.94-3.34v-1l6.94,3.34v-2.69h-2.63v-0.92h2.63v-1.13h0.85
					V380.51z"/>
				<path class="st4" d="M314.45,368.55l-4.93,2.82l2.34,1.95h2.59v0.99h-9.26v-0.99h5.32l-5.32-4.32v-1.21l3.58,2.91l5.68-3.33
					L314.45,368.55L314.45,368.55z"/>
				<path class="st4" d="M314.45,362.7v3.6h-9.26v-3.48c0-1.61,0.92-2.73,2.47-2.73c0.97,0,1.74,0.58,2.03,1.37
					c0.32-0.88,1.09-1.51,2.2-1.51C313.57,359.95,314.45,361.06,314.45,362.7z M306.08,362.9v2.42h3.21v-2.42
					c0-1.03-0.51-1.82-1.61-1.82C306.57,361.08,306.08,361.87,306.08,362.9z M310.17,362.79v2.52h3.39v-2.52
					c0-1.14-0.66-1.86-1.7-1.86S310.17,361.65,310.17,362.79z"/>
			</g>
		</g>
	</g>
</g>
<g>
	<g>
		<g>
			<defs>
				<rect id="SVGID_95_" x="61.94" y="48.96" width="310.8" height="368.88"/>
			</defs>
			<clipPath id="SVGID_96_">
				<use xlink:href="#SVGID_95_"  style="overflow:visible;"/>
			</clipPath>
			<g class="st51">
				<path class="st4" d="M338.46,398.48h-0.83l-4.64-3.65c-0.46-0.35-0.86-0.52-1.36-0.52c-1,0-1.66,0.6-1.66,1.61
					c0,0.86,0.48,1.61,1.68,1.61v0.94c-1.46,0-2.51-1-2.51-2.55c0-1.52,0.97-2.55,2.5-2.55c0.74,0,1.22,0.23,1.87,0.74l4.13,3.24
					v-3.98h0.83L338.46,398.48L338.46,398.48z"/>
				<path class="st4" d="M337.86,387.1c0.43,0.43,0.69,1.03,0.69,1.85c0,0.81-0.26,1.46-0.66,1.86c-0.42,0.4-0.95,0.6-1.61,0.65
					v-0.94c0.92-0.12,1.44-0.6,1.44-1.57c0-0.46-0.16-0.87-0.43-1.14c-0.48-0.48-1.22-0.51-1.88-0.51c-1.13,0-2.25,0.22-2.25,1.56
					c0,0.81,0.36,1.35,0.91,1.53v0.84h-4.86v-4.68h0.83v3.84h2.94c-0.4-0.36-0.64-0.94-0.64-1.66c0-0.69,0.22-1.24,0.58-1.6
					c0.68-0.68,1.61-0.77,2.48-0.77C336.33,386.36,337.2,386.44,337.86,387.1z"/>
				<path class="st4" d="M338.54,381.95c0,1.57-1.07,2.57-2.67,2.57c-0.66,0-1.3-0.2-2.08-0.58l-4.59-2.28v-0.96l4.16,2.07
					c-0.13-0.29-0.19-0.61-0.19-0.98c0-1.44,1.1-2.41,2.63-2.41C337.37,379.39,338.54,380.38,338.54,381.95z M333.96,381.97
					c0,0.99,0.73,1.62,1.87,1.62c1.13,0,1.87-0.64,1.87-1.62s-0.74-1.64-1.87-1.64C334.81,380.33,333.96,380.9,333.96,381.97z"/>
				<path class="st4" d="M338.46,368.28l-4.93,2.82l2.34,1.95h2.59v0.99h-9.26v-0.99h5.32l-5.32-4.32v-1.21l3.58,2.91l5.68-3.33
					L338.46,368.28L338.46,368.28z"/>
				<path class="st4" d="M338.46,362.43v3.6h-9.26v-3.48c0-1.61,0.92-2.73,2.47-2.73c0.97,0,1.74,0.59,2.03,1.37
					c0.32-0.88,1.09-1.51,2.2-1.51C337.58,359.67,338.46,360.79,338.46,362.43z M330.09,362.62v2.42h3.21v-2.42
					c0-1.03-0.51-1.82-1.61-1.82C330.58,360.8,330.09,361.6,330.09,362.62z M334.18,362.52v2.52h3.39v-2.52
					c0-1.14-0.66-1.86-1.7-1.86S334.18,361.38,334.18,362.52z"/>
			</g>
		</g>
	</g>
</g>
<g>
	<g>
		<g>
			<defs>
				<rect id="SVGID_97_" x="61.94" y="48.96" width="310.8" height="368.88"/>
			</defs>
			<clipPath id="SVGID_98_">
				<use xlink:href="#SVGID_97_"  style="overflow:visible;"/>
			</clipPath>
			<g class="st52">
				<path class="st4" d="M362.47,384.73h-8.22l1.52,1.73h-1.07l-1.49-1.73v-0.94h9.26V384.73z"/>
				<path class="st4" d="M362.47,369.8h-7.03l5.58,2.54v0.84l-5.58,2.57h7.03v0.99h-9.26v-0.99l6.56-3.02l-6.56-2.94v-0.99h9.26
					V369.8z"/>
				<path class="st4" d="M362.47,362.14v3.6h-9.26v-3.48c0-1.61,0.92-2.73,2.47-2.73c0.97,0,1.74,0.59,2.03,1.37
					c0.32-0.88,1.09-1.51,2.2-1.51C361.59,359.39,362.47,360.51,362.47,362.14z M354.1,362.34v2.42h3.21v-2.42
					c0-1.03-0.51-1.82-1.61-1.82C354.59,360.52,354.1,361.31,354.1,362.34z M358.19,362.24v2.52h3.39v-2.52
					c0-1.14-0.66-1.86-1.7-1.86S358.19,361.09,358.19,362.24z"/>
			</g>
		</g>
	</g>
</g>
<g>
	<g>
		<g>
			<defs>
				<rect id="SVGID_99_" x="61.94" y="48.96" width="310.8" height="368.88"/>
			</defs>
			<clipPath id="SVGID_100_">
				<use xlink:href="#SVGID_99_"  style="overflow:visible;"/>
			</clipPath>
			<g class="st53">
				<path d="M134.95,68.4v-5.2h-5.41v5.2h-1.22V57h1.22v5.11h5.41V57h1.22v11.4H134.95z"/>
				<path d="M138.9,68.4v-1.02l4.5-5.71c0.43-0.56,0.64-1.06,0.64-1.68c0-1.23-0.74-2.05-1.98-2.05c-1.06,0-1.98,0.59-1.98,2.06
					h-1.15c0-1.79,1.23-3.09,3.14-3.09c1.87,0,3.14,1.2,3.14,3.07c0,0.91-0.29,1.5-0.91,2.31l-3.99,5.09h4.9v1.02H138.9z"/>
				<path d="M154.6,67.34c-0.69,0.69-1.7,1.06-2.88,1.06h-3.91V57h3.91c1.18,0,2.19,0.37,2.88,1.06c1.18,1.18,1.12,2.93,1.12,4.51
					C155.72,64.16,155.78,66.16,154.6,67.34z M153.75,58.92c-0.59-0.61-1.36-0.83-2.24-0.83h-2.48v9.22h2.48
					c0.88,0,1.65-0.22,2.24-0.83c0.78-0.82,0.75-2.51,0.75-3.91S154.53,59.74,153.75,58.92z"/>
				<path d="M166.11,68.5c-1.12,0-2.15-0.42-2.91-1.18c-1.07-1.07-1.07-2.19-1.07-4.61s0-3.54,1.07-4.61
					c0.77-0.77,1.79-1.18,2.91-1.18c2.05,0,3.57,1.25,3.95,3.39h-1.25c-0.3-1.39-1.28-2.31-2.71-2.31c-0.75,0-1.47,0.29-1.97,0.8
					c-0.72,0.74-0.8,1.52-0.8,3.91c0,2.38,0.08,3.17,0.8,3.91c0.5,0.51,1.22,0.8,1.97,0.8c1.42,0,2.43-0.91,2.74-2.31h1.22
					C169.7,67.25,168.15,68.5,166.11,68.5z"/>
				<path d="M177.6,67.6c-0.54,0.54-1.3,0.9-2.26,0.9s-1.71-0.35-2.26-0.9c-0.8-0.82-0.96-1.92-0.96-3.14s0.16-2.32,0.96-3.14
					c0.54-0.54,1.3-0.9,2.26-0.9s1.71,0.35,2.26,0.9c0.8,0.82,0.96,1.92,0.96,3.14C178.56,65.68,178.4,66.78,177.6,67.6z
					 M176.79,62.03c-0.37-0.37-0.88-0.58-1.44-0.58s-1.06,0.21-1.42,0.58c-0.58,0.58-0.64,1.55-0.64,2.43
					c0,0.88,0.06,1.86,0.64,2.43c0.37,0.37,0.86,0.58,1.42,0.58s1.07-0.21,1.44-0.58c0.58-0.58,0.62-1.55,0.62-2.43
					S177.36,62.61,176.79,62.03z"/>
				<path d="M186.32,67.81c-0.42,0.42-1.12,0.69-1.92,0.69c-0.86,0-1.58-0.21-2.22-1.02v4.45h-1.15v-11.4h1.15v0.93
					c0.64-0.83,1.36-1.02,2.22-1.02c0.8,0,1.5,0.27,1.92,0.69c0.8,0.8,0.96,2.11,0.96,3.35S187.12,67.01,186.32,67.81z
					 M184.16,61.45c-1.71,0-1.98,1.47-1.98,3.01c0,1.54,0.27,3.01,1.98,3.01c1.71,0,1.97-1.47,1.97-3.01S185.87,61.45,184.16,61.45z
					"/>
				<path d="M191.7,70.3c-0.16,0.43-0.34,0.72-0.56,0.93c-0.42,0.4-0.98,0.54-1.54,0.54h-0.5v-1.02h0.35c0.8,0,1.04-0.26,1.3-0.98
					l0.56-1.54l-2.83-7.71h1.25l2.16,6.32l2.15-6.32h1.25L191.7,70.3z"/>
				<path d="M201.09,68.4V57h1.22v10.31h5.83v1.09C208.14,68.4,201.09,68.4,201.09,68.4z"/>
				<path d="M214.51,68.4v-0.75c-0.64,0.64-1.22,0.85-2.27,0.85c-1.09,0-1.73-0.21-2.22-0.72c-0.38-0.38-0.59-0.98-0.59-1.6
					c0-1.38,0.96-2.27,2.72-2.27h2.37v-0.75c0-1.15-0.58-1.73-2.02-1.73c-1.01,0-1.52,0.24-1.98,0.9l-0.78-0.72
					c0.7-0.91,1.5-1.17,2.79-1.17c2.11,0,3.15,0.91,3.15,2.62v5.35h-1.17L214.51,68.4L214.51,68.4z M214.51,64.77h-2.21
					c-1.18,0-1.76,0.48-1.76,1.39c0,0.91,0.56,1.34,1.81,1.34c0.67,0,1.26-0.05,1.76-0.53c0.27-0.26,0.4-0.7,0.4-1.36L214.51,64.77
					L214.51,64.77z"/>
				<path d="M220.67,68.4c-1.34,0-2.02-0.94-2.02-2.11v-4.83h-0.99v-0.88h0.99v-2.46h1.15v2.46h1.68v0.88h-1.68v4.8
					c0,0.72,0.34,1.15,1.07,1.15h0.61v0.99H220.67z"/>
				<path d="M224.5,64.77c0,1.73,0.82,2.72,2.32,2.72c0.91,0,1.44-0.27,2.06-0.9l0.78,0.69c-0.8,0.8-1.54,1.22-2.88,1.22
					c-2.08,0-3.44-1.25-3.44-4.03c0-2.54,1.23-4.03,3.23-4.03c2.03,0,3.23,1.47,3.23,3.81v0.53h-5.3L224.5,64.77L224.5,64.77z
					 M228.42,62.59c-0.3-0.72-1.01-1.18-1.84-1.18s-1.54,0.46-1.84,1.18c-0.18,0.43-0.21,0.67-0.24,1.31h4.16
					C228.63,63.26,228.59,63.02,228.42,62.59z"/>
				<path d="M237.3,68.4v-4.85c0-1.39-0.75-2.1-1.94-2.1s-1.95,0.72-1.95,2.1v4.85h-1.15v-7.88h1.15v0.86
					c0.56-0.64,1.33-0.96,2.21-0.96c0.85,0,1.54,0.26,2.02,0.74c0.56,0.54,0.82,1.28,0.82,2.19v5.04h-1.16L237.3,68.4L237.3,68.4z"
					/>
				<path d="M244.31,68.5c-1.98,0-3.49-1.34-3.49-4.03c0-2.69,1.5-4.03,3.49-4.03c1.09,0,1.78,0.29,2.59,1.17l-0.78,0.74
					c-0.59-0.66-1.06-0.88-1.81-0.88c-0.77,0-1.41,0.3-1.83,0.9c-0.37,0.51-0.51,1.12-0.51,2.11c0,0.99,0.14,1.6,0.51,2.11
					c0.42,0.59,1.06,0.9,1.83,0.9c0.75,0,1.22-0.24,1.81-0.9l0.78,0.75C246.08,68.21,245.39,68.5,244.31,68.5z"/>
				<path d="M251.04,70.3c-0.16,0.43-0.34,0.72-0.56,0.93c-0.42,0.4-0.98,0.54-1.54,0.54h-0.5v-1.02h0.35c0.8,0,1.04-0.26,1.3-0.98
					l0.56-1.54l-2.83-7.71h1.25l2.16,6.32l2.15-6.32h1.25L251.04,70.3z"/>
				<path d="M261.74,69.91c-0.51-0.51-0.86-0.85-1.15-1.38s-0.34-1.09-0.34-1.65v-8.36c0-0.56,0.05-1.12,0.34-1.65
					c0.29-0.53,0.64-0.86,1.15-1.38l0.78,0.78c-0.37,0.37-0.66,0.62-0.86,1.04c-0.16,0.32-0.26,0.77-0.26,1.3v8.16
					c0,0.53,0.1,0.98,0.26,1.3c0.21,0.42,0.5,0.67,0.86,1.04L261.74,69.91z"/>
				<path d="M271.99,67.34c-0.69,0.69-1.7,1.06-2.88,1.06h-3.91V57h3.91c1.18,0,2.19,0.37,2.88,1.06c1.18,1.18,1.12,2.93,1.12,4.51
					C273.11,64.16,273.17,66.16,271.99,67.34z M271.14,58.92c-0.59-0.61-1.36-0.83-2.24-0.83h-2.48v9.22h2.48
					c0.88,0,1.65-0.22,2.24-0.83c0.78-0.82,0.75-2.51,0.75-3.91S271.92,59.74,271.14,58.92z"/>
				<path d="M282.56,67.18c-0.8,0.86-1.87,1.31-3.04,1.31c-1.12,0-2.14-0.42-2.91-1.18c-1.07-1.07-1.07-2.19-1.07-4.61
					s0-3.54,1.07-4.61c0.77-0.77,1.78-1.18,2.91-1.18c2.18,0,3.65,1.41,3.99,3.41h-1.22c-0.32-1.44-1.34-2.32-2.77-2.32
					c-0.75,0-1.47,0.3-1.97,0.82c-0.72,0.74-0.8,1.5-0.8,3.89c0,2.38,0.08,3.17,0.8,3.91c0.5,0.51,1.22,0.8,1.97,0.8
					c0.83,0,1.63-0.34,2.16-0.98c0.46-0.56,0.64-1.18,0.64-2.06V63.5h-2.8v-1.07h4.02v1.81C283.54,65.55,283.27,66.43,282.56,67.18z
					"/>
				<path d="M291.89,68.4l-2.77-4.79l-2.79,4.79h-1.38l3.49-5.84L285.18,57h1.41l2.53,4.5l2.53-4.5h1.41l-3.28,5.55l3.52,5.84h-1.41
					L291.89,68.4L291.89,68.4z"/>
			</g>
		</g>
	</g>
</g>
<g>
	<g>
		<g>
			<defs>
				<rect id="SVGID_101_" x="61.94" y="48.96" width="310.8" height="368.88"/>
			</defs>
			<clipPath id="SVGID_102_">
				<use xlink:href="#SVGID_101_"  style="overflow:visible;"/>
			</clipPath>
			<g class="st54">
				<text transform="matrix(1 0 0 1 293.5327 68.4004)" class="st5 st28">-</text>
			</g>
		</g>
	</g>
</g>
<g>
	<g>
		<g>
			<defs>
				<rect id="SVGID_103_" x="61.94" y="48.96" width="310.8" height="368.88"/>
			</defs>
			<clipPath id="SVGID_104_">
				<use xlink:href="#SVGID_103_"  style="overflow:visible;"/>
			</clipPath>
			<g class="st55">
				<path d="M304.48,68.4V58.28l-2.13,1.87v-1.31l2.13-1.84h1.15v11.4C305.63,68.4,304.48,68.4,304.48,68.4z"/>
				<path d="M313.56,68.4h-0.99L308.83,57h1.28l2.96,9.22l2.96-9.22h1.28L313.56,68.4z"/>
				<path d="M320.4,68.53c-0.29,0.53-0.64,0.86-1.15,1.38l-0.82-0.82c0.37-0.37,0.67-0.62,0.88-1.04c0.16-0.32,0.22-0.75,0.22-1.26
					v-8.16c0-0.51-0.06-0.94-0.22-1.26c-0.21-0.42-0.51-0.67-0.88-1.04l0.82-0.82c0.51,0.51,0.86,0.85,1.15,1.38
					c0.29,0.53,0.32,1.09,0.32,1.65v8.36C320.72,67.44,320.68,68,320.4,68.53z"/>
			</g>
		</g>
	</g>
</g>
<g>
	<path class="st56" d="M128.96,304.32h-1.22l3.95-10.37h-3.97v1.79h-1.14v-2.82h6.32v1.02L128.96,304.32z"/>
	<path class="st56" d="M135.15,304.32v-1.5h1.5v1.5H135.15z"/>
	<path class="st56" d="M144.44,302.51v1.81h-1.14v-1.81h-4.55v-1.04l4.11-8.55h1.23l-4.11,8.55h3.31v-3.23h1.14v3.23h1.39v1.04
		H144.44z"/>
	<path class="st56" d="M152.21,304.32l-1.89-3.06l-1.92,3.06h-1.39l2.67-4.02l-2.56-3.86h1.39l1.81,2.91l1.78-2.91h1.39l-2.56,3.86
		l2.67,4.02H152.21z"/>
	<path class="st56" d="M164.85,303.73c-0.42,0.42-1.12,0.69-1.92,0.69c-0.86,0-1.58-0.21-2.22-1.04v0.94h-1.15v-11.4h1.15v4.43
		c0.64-0.82,1.36-1.01,2.22-1.01c0.8,0,1.5,0.27,1.92,0.69c0.8,0.8,0.96,2.11,0.96,3.35S165.65,302.93,164.85,303.73z
		 M162.69,297.37c-1.71,0-1.98,1.47-1.98,3.01s0.27,3.01,1.98,3.01c1.71,0,1.97-1.47,1.97-3.01
		C164.66,298.85,164.4,297.37,162.69,297.37z"/>
	<path class="st56" d="M169.02,300.69c0,1.73,0.82,2.72,2.32,2.72c0.91,0,1.44-0.27,2.06-0.9l0.78,0.69
		c-0.8,0.8-1.54,1.22-2.88,1.22c-2.08,0-3.44-1.25-3.44-4.03c0-2.54,1.23-4.03,3.23-4.03c2.03,0,3.23,1.47,3.23,3.81v0.53h-5.3
		L169.02,300.69L169.02,300.69z M172.95,298.51c-0.3-0.72-1.01-1.18-1.84-1.18s-1.54,0.46-1.84,1.18c-0.18,0.43-0.21,0.67-0.24,1.31
		h4.16C173.15,299.18,173.12,298.94,172.95,298.51z"/>
	<path class="st56" d="M179.01,304.32c-1.34,0-2.02-0.94-2.02-2.11v-4.83H176v-0.88h0.99v-2.46h1.15v2.46h1.68v0.88h-1.68v4.8
		c0,0.72,0.34,1.15,1.07,1.15h0.61v0.99H179.01z"/>
	<path class="st56" d="M184.27,304.32c-1.34,0-2.02-0.94-2.02-2.11v-4.83h-0.99v-0.88h0.99v-2.46h1.15v2.46h1.68v0.88h-1.68v4.8
		c0,0.72,0.34,1.15,1.07,1.15h0.61v0.99H184.27z"/>
	<path class="st56" d="M188.05,300.69c0,1.73,0.82,2.72,2.32,2.72c0.91,0,1.44-0.27,2.06-0.9l0.78,0.69
		c-0.8,0.8-1.54,1.22-2.88,1.22c-2.08,0-3.44-1.25-3.44-4.03c0-2.54,1.23-4.03,3.23-4.03c2.03,0,3.23,1.47,3.23,3.81v0.53h-5.3
		L188.05,300.69L188.05,300.69z M191.97,298.51c-0.3-0.72-1.01-1.18-1.84-1.18s-1.54,0.46-1.84,1.18c-0.18,0.43-0.21,0.67-0.24,1.31
		h4.16C192.18,299.18,192.15,298.94,191.97,298.51z"/>
	<path class="st56" d="M200.23,297.95c-0.43-0.43-0.75-0.58-1.36-0.58c-1.15,0-1.89,0.91-1.89,2.11v4.83h-1.15v-7.88h1.15v0.96
		c0.43-0.66,1.3-1.06,2.21-1.06c0.75,0,1.33,0.18,1.89,0.74L200.23,297.95z"/>
</g>
<path class="st56" d="M112.98,335.72l3,6l3-6H112.98z M116.98,336.72v-45.21h-2v45.21H116.98z"/>
<g>
	<path class="st57" d="M253.29,436.64c-1.61,0-2.83-1.09-2.83-3.28c0-2.18,1.22-3.28,2.83-3.28c0.88,0,1.44,0.23,2.11,0.95
		l-0.64,0.6c-0.48-0.53-0.86-0.72-1.47-0.72c-0.62,0-1.14,0.25-1.48,0.73c-0.3,0.42-0.42,0.91-0.42,1.72s0.12,1.3,0.42,1.72
		c0.34,0.48,0.86,0.73,1.48,0.73c0.61,0,0.99-0.2,1.47-0.73l0.64,0.61C254.74,436.4,254.18,436.64,253.29,436.64z"/>
	<path class="st57" d="M261.22,436.56v-0.71c-0.46,0.52-1.09,0.79-1.81,0.79c-0.69,0-1.26-0.21-1.65-0.6
		c-0.46-0.44-0.65-1.05-0.65-1.79v-4.08h0.94v3.94c0,1.13,0.6,1.7,1.56,1.7s1.6-0.58,1.6-1.7v-3.94h0.94v6.4h-0.93L261.22,436.56
		L261.22,436.56z"/>
	<path class="st57" d="M268.26,436.56v-0.77c-0.52,0.68-1.12,0.84-1.82,0.84c-0.65,0-1.22-0.22-1.56-0.56
		c-0.65-0.65-0.78-1.72-0.78-2.72s0.13-2.07,0.78-2.72c0.34-0.34,0.91-0.56,1.56-0.56c0.7,0,1.29,0.16,1.81,0.82v-3.6h0.94v9.26
		L268.26,436.56L268.26,436.56z M266.65,430.92c-1.39,0-1.61,1.2-1.61,2.44s0.22,2.44,1.61,2.44c1.39,0,1.6-1.2,1.6-2.44
		S268.04,430.92,266.65,430.92z"/>
	<path class="st57" d="M275.19,436.56v-0.61c-0.52,0.52-0.99,0.69-1.85,0.69c-0.88,0-1.4-0.17-1.81-0.58
		c-0.31-0.31-0.48-0.79-0.48-1.3c0-1.12,0.78-1.85,2.21-1.85h1.92v-0.61c0-0.94-0.47-1.4-1.64-1.4c-0.82,0-1.24,0.19-1.61,0.73
		l-0.64-0.58c0.57-0.74,1.22-0.95,2.26-0.95c1.72,0,2.56,0.74,2.56,2.13v4.34h-0.92L275.19,436.56L275.19,436.56z M275.19,433.61
		h-1.79c-0.96,0-1.43,0.39-1.43,1.13s0.46,1.09,1.47,1.09c0.55,0,1.03-0.04,1.43-0.43c0.22-0.21,0.32-0.57,0.32-1.1V433.61z"/>
	<path class="st57" d="M285.53,436.56v-7.03L283,435.1h-0.84l-2.57-5.58v7.03h-0.99v-9.26h0.99l3.02,6.57l2.94-6.57h0.99v9.26
		L285.53,436.56L285.53,436.56z"/>
	<path class="st57" d="M289.63,433.61c0,1.4,0.66,2.21,1.88,2.21c0.74,0,1.17-0.22,1.68-0.73l0.64,0.56
		c-0.65,0.65-1.25,0.99-2.34,0.99c-1.69,0-2.79-1.01-2.79-3.28c0-2.07,1-3.28,2.63-3.28c1.65,0,2.63,1.2,2.63,3.09v0.43h-4.33
		L289.63,433.61L289.63,433.61z M292.81,431.84c-0.25-0.58-0.82-0.96-1.5-0.96s-1.25,0.38-1.5,0.96c-0.14,0.35-0.17,0.55-0.2,1.07
		h3.38C292.98,432.39,292.96,432.19,292.81,431.84z"/>
	<path class="st57" d="M304.14,436.56v-3.94c0-1.13-0.61-1.7-1.57-1.7c-0.94,0-1.6,0.58-1.6,1.6v4.04h-0.94v-3.94
		c0-1.13-0.61-1.7-1.57-1.7s-1.6,0.58-1.6,1.7v3.94h-0.94v-6.4h0.94v0.7c0.46-0.52,1.09-0.78,1.81-0.78c0.88,0,1.57,0.36,1.96,1.07
		c0.49-0.7,1.21-1.07,2.11-1.07c0.69,0,1.26,0.22,1.65,0.6c0.46,0.44,0.69,1.04,0.69,1.78v4.09L304.14,436.56L304.14,436.56z"/>
	<path class="st57" d="M309.79,436.64c-1.61,0-2.83-1.09-2.83-3.28c0-2.18,1.22-3.28,2.83-3.28c0.88,0,1.44,0.23,2.11,0.95
		l-0.64,0.6c-0.48-0.53-0.86-0.72-1.47-0.72c-0.62,0-1.14,0.25-1.48,0.73c-0.3,0.42-0.42,0.91-0.42,1.72s0.12,1.3,0.42,1.72
		c0.34,0.48,0.86,0.73,1.48,0.73c0.61,0,0.99-0.2,1.47-0.73l0.64,0.61C311.23,436.4,310.68,436.64,309.79,436.64z"/>
	<path class="st57" d="M317.98,436.08c-0.34,0.34-0.91,0.56-1.56,0.56c-0.7,0-1.29-0.17-1.81-0.83v3.61h-0.94v-9.26h0.94v0.75
		c0.52-0.68,1.1-0.83,1.81-0.83c0.65,0,1.22,0.22,1.56,0.56c0.65,0.65,0.78,1.72,0.78,2.72S318.63,435.43,317.98,436.08z
		 M316.23,430.92c-1.39,0-1.61,1.2-1.61,2.44s0.22,2.44,1.61,2.44c1.39,0,1.6-1.2,1.6-2.44S317.62,430.92,316.23,430.92z"/>
	<path class="st57" d="M322.39,438.11c-0.13,0.35-0.27,0.58-0.46,0.75c-0.34,0.33-0.79,0.44-1.25,0.44h-0.4v-0.83h0.29
		c0.65,0,0.85-0.21,1.05-0.79l0.46-1.25l-2.3-6.27h1.01l1.75,5.14l1.74-5.14h1.01L322.39,438.11z"/>
</g>
<g>
	<path class="st57" d="M149.12,435.57c-0.65,0.7-1.52,1.07-2.47,1.07c-0.91,0-1.74-0.34-2.37-0.96c-0.87-0.87-0.87-1.78-0.87-3.74
		s0-2.87,0.87-3.74c0.62-0.62,1.44-0.96,2.37-0.96c1.77,0,2.96,1.14,3.24,2.77h-0.99c-0.26-1.17-1.09-1.88-2.25-1.88
		c-0.61,0-1.2,0.25-1.6,0.66c-0.58,0.6-0.65,1.22-0.65,3.16s0.06,2.57,0.65,3.17c0.4,0.42,0.99,0.65,1.6,0.65
		c0.68,0,1.33-0.27,1.76-0.79c0.38-0.46,0.52-0.96,0.52-1.68v-0.7h-2.27v-0.87h3.26v1.47C149.91,434.25,149.69,434.96,149.12,435.57
		z"/>
	<path class="st57" d="M157.76,435.7c-0.56,0.56-1.38,0.86-2.34,0.86h-3.17v-9.26h3.17c0.96,0,1.78,0.3,2.34,0.86
		c0.96,0.96,0.91,2.38,0.91,3.67S158.73,434.74,157.76,435.7z M157.07,428.86c-0.48-0.49-1.1-0.68-1.82-0.68h-2.02v7.49h2.02
		c0.71,0,1.34-0.18,1.82-0.68c0.64-0.66,0.61-2.04,0.61-3.17S157.71,429.53,157.07,428.86z"/>
	<path class="st57" d="M166.32,436.56l-2.11-4.11h-2.22v4.11H161v-9.26h3.55c1.61,0,2.74,0.98,2.74,2.57c0,1.35-0.82,2.24-2.02,2.48
		l2.2,4.2L166.32,436.56L166.32,436.56z M164.46,428.19h-2.47v3.39h2.47c1.08,0,1.85-0.56,1.85-1.69S165.54,428.19,164.46,428.19z"
		/>
	<path class="st57" d="M172.39,436.64c-0.91,0-1.74-0.34-2.37-0.96c-0.87-0.87-0.87-1.78-0.87-3.74s0-2.87,0.87-3.74
		c0.62-0.62,1.46-0.96,2.37-0.96c1.66,0,2.9,1.01,3.21,2.76h-1.01c-0.25-1.13-1.04-1.87-2.2-1.87c-0.61,0-1.2,0.23-1.6,0.65
		c-0.58,0.6-0.65,1.23-0.65,3.17s0.06,2.57,0.65,3.17c0.4,0.42,0.99,0.65,1.6,0.65c1.16,0,1.98-0.74,2.22-1.87h0.99
		C175.3,435.62,174.04,436.64,172.39,436.64z"/>
	<path class="st57" d="M181.7,435.91c-0.44,0.44-1.05,0.73-1.83,0.73s-1.39-0.29-1.83-0.73c-0.65-0.66-0.78-1.56-0.78-2.55
		s0.13-1.88,0.78-2.55c0.44-0.44,1.05-0.73,1.83-0.73s1.39,0.29,1.83,0.73c0.65,0.66,0.78,1.56,0.78,2.55
		S182.35,435.25,181.7,435.91z M181.03,431.39c-0.3-0.3-0.72-0.47-1.17-0.47c-0.46,0-0.86,0.17-1.16,0.47
		c-0.47,0.47-0.52,1.26-0.52,1.98s0.05,1.51,0.52,1.98c0.3,0.3,0.7,0.47,1.16,0.47c0.45,0,0.87-0.17,1.17-0.47
		c0.47-0.47,0.51-1.26,0.51-1.98S181.5,431.85,181.03,431.39z"/>
	<path class="st57" d="M188.77,436.08c-0.34,0.34-0.91,0.56-1.56,0.56c-0.7,0-1.29-0.17-1.81-0.83v3.61h-0.94v-9.26h0.94v0.75
		c0.52-0.68,1.1-0.83,1.81-0.83c0.65,0,1.22,0.22,1.56,0.56c0.65,0.65,0.78,1.72,0.78,2.72S189.42,435.43,188.77,436.08z
		 M187.01,430.92c-1.39,0-1.61,1.2-1.61,2.44s0.22,2.44,1.61,2.44s1.6-1.2,1.6-2.44S188.4,430.92,187.01,430.92z"/>
	<path class="st57" d="M193.16,438.11c-0.13,0.35-0.27,0.58-0.45,0.75c-0.34,0.33-0.79,0.44-1.25,0.44h-0.4v-0.83h0.29
		c0.65,0,0.85-0.21,1.05-0.79l0.46-1.25l-2.3-6.27h1.01l1.75,5.14l1.74-5.14h1.01L193.16,438.11z"/>
</g>
<line class="st58" x1="232.87" y1="431.39" x2="244.26" y2="431.39"/>
<line class="st59" x1="125.96" y1="431.39" x2="137.35" y2="431.39"/>
<rect x="41.47" y="41.03" class="st60" width="352.71" height="403.94"/>
<rect x="413.7" y="41.03" class="st60" width="352.71" height="403.94"/>
<g>
	<path d="M63.22,255.94h-9.26v-0.99h8.37v-4.73h0.88v5.72H63.22z"/>
	<path d="M63.22,245h-0.61c0.52,0.52,0.69,0.99,0.69,1.85c0,0.88-0.17,1.4-0.58,1.81c-0.31,0.31-0.79,0.48-1.3,0.48
		c-1.12,0-1.85-0.78-1.85-2.21V245h-0.61c-0.94,0-1.4,0.47-1.4,1.64c0,0.82,0.19,1.24,0.73,1.61l-0.58,0.64
		c-0.74-0.57-0.95-1.22-0.95-2.26c0-1.72,0.74-2.56,2.13-2.56h4.34L63.22,245L63.22,245z M60.27,245v1.79
		c0,0.96,0.39,1.43,1.13,1.43s1.09-0.46,1.09-1.47c0-0.55-0.04-1.03-0.43-1.43c-0.21-0.22-0.57-0.33-1.1-0.33h-0.69
		C60.27,244.99,60.27,245,60.27,245z"/>
	<path d="M63.22,239.96c0,1.09-0.77,1.64-1.72,1.64h-3.93v0.81h-0.72v-0.81h-2v-0.94h2v-1.37h0.72v1.37h3.9
		c0.58,0,0.94-0.27,0.94-0.87v-0.49h0.81V239.96z"/>
	<path d="M60.27,236.81c1.4,0,2.21-0.66,2.21-1.89c0-0.74-0.22-1.17-0.73-1.68l0.56-0.64c0.65,0.65,0.99,1.25,0.99,2.34
		c0,1.69-1.01,2.79-3.28,2.79c-2.07,0-3.28-1-3.28-2.63c0-1.65,1.2-2.63,3.09-2.63h0.43L60.27,236.81L60.27,236.81z M58.5,233.62
		c-0.58,0.25-0.96,0.82-0.96,1.5s0.38,1.25,0.96,1.5c0.35,0.14,0.55,0.17,1.07,0.2v-3.38C59.05,233.45,58.86,233.48,58.5,233.62z"/>
	<path d="M63.22,226.42h-3.94c-1.13,0-1.7,0.61-1.7,1.57s0.58,1.59,1.7,1.59h3.94v0.94h-6.4v-0.94h0.7
		c-0.52-0.46-0.78-1.08-0.78-1.79c0-0.69,0.21-1.25,0.6-1.64c0.44-0.46,1.04-0.66,1.78-0.66h4.1
		C63.22,225.49,63.22,226.42,63.22,226.42z"/>
	<path d="M63.3,220.78c0,1.61-1.09,2.83-3.28,2.83s-3.28-1.22-3.28-2.83c0-0.88,0.23-1.44,0.95-2.11l0.6,0.64
		c-0.53,0.48-0.71,0.86-0.71,1.47c0,0.62,0.25,1.14,0.73,1.48c0.42,0.3,0.91,0.42,1.72,0.42s1.3-0.12,1.72-0.42
		c0.48-0.34,0.73-0.86,0.73-1.48c0-0.61-0.2-0.99-0.73-1.47l0.61-0.64C63.07,219.33,63.3,219.89,63.3,220.78z"/>
	<path d="M64.77,215.3c0.35,0.13,0.58,0.27,0.75,0.46c0.32,0.34,0.44,0.79,0.44,1.25v0.4h-0.83v-0.29c0-0.65-0.21-0.84-0.79-1.05
		l-1.25-0.46l-6.27,2.3v-1.01l5.14-1.75l-5.14-1.74v-1.01L64.77,215.3z"/>
	<path d="M64.45,206.67c-0.42,0.42-0.69,0.7-1.12,0.94c-0.43,0.23-0.88,0.27-1.34,0.27H55.2c-0.46,0-0.91-0.04-1.34-0.27
		c-0.43-0.23-0.7-0.52-1.12-0.94l0.64-0.64c0.3,0.3,0.51,0.53,0.85,0.7c0.26,0.13,0.62,0.21,1.05,0.21h6.63
		c0.43,0,0.79-0.08,1.05-0.21c0.34-0.17,0.55-0.4,0.84-0.7L64.45,206.67z"/>
	<path d="M63.22,199.99h-0.71c0.52,0.46,0.79,1.09,0.79,1.81c0,0.69-0.21,1.26-0.6,1.65c-0.44,0.46-1.05,0.65-1.79,0.65h-4.08v-0.94
		h3.94c1.13,0,1.7-0.6,1.7-1.56c0-0.96-0.58-1.6-1.7-1.6h-3.94v-0.94h6.4v0.93L63.22,199.99L63.22,199.99z"/>
	<path d="M63.3,194.76c0,1.08-0.25,1.92-0.92,2.63l-0.62-0.62c0.53-0.51,0.74-1.2,0.74-1.99c0-1.05-0.38-1.7-1.13-1.7
		c-0.56,0-0.87,0.33-0.94,1.07l-0.09,1.05c-0.1,1.25-0.66,1.91-1.72,1.91c-1.17,0-1.87-0.99-1.87-2.35c0-0.91,0.22-1.73,0.69-2.3
		l0.61,0.61c-0.35,0.46-0.51,1.04-0.51,1.7c0,0.94,0.4,1.43,1.05,1.43c0.55,0,0.87-0.31,0.94-1.12l0.09-1.03
		c0.1-1.12,0.53-1.88,1.73-1.88C62.59,192.16,63.3,193.22,63.3,194.76z"/>
	<path d="M63.33,189.06c0.43,0.23,0.7,0.52,1.12,0.94l-0.66,0.66c-0.3-0.3-0.51-0.55-0.85-0.72c-0.26-0.13-0.61-0.18-1.03-0.18
		h-6.63c-0.42,0-0.77,0.05-1.03,0.18c-0.34,0.17-0.55,0.42-0.85,0.72L52.74,190c0.42-0.42,0.69-0.7,1.12-0.94
		c0.43-0.23,0.88-0.26,1.34-0.26h6.79C62.44,188.8,62.9,188.82,63.33,189.06z"/>
</g>
<g>
	<path d="M204.18,410.26c-0.56,0.56-1.38,0.86-2.34,0.86h-3.17v-9.26h3.17c0.96,0,1.78,0.3,2.34,0.86c0.96,0.96,0.91,2.38,0.91,3.67
		S205.14,409.3,204.18,410.26z M203.49,403.42c-0.48-0.49-1.1-0.68-1.82-0.68h-2.02v7.49h2.02c0.71,0,1.34-0.18,1.82-0.68
		c0.64-0.66,0.61-2.04,0.61-3.17S204.13,404.09,203.49,403.42z"/>
	<path d="M210.88,411.12v-0.61c-0.52,0.52-0.99,0.69-1.85,0.69c-0.88,0-1.4-0.17-1.81-0.58c-0.31-0.31-0.48-0.79-0.48-1.3
		c0-1.12,0.78-1.85,2.21-1.85h1.92v-0.61c0-0.94-0.47-1.4-1.64-1.4c-0.82,0-1.24,0.19-1.61,0.73l-0.64-0.58
		c0.57-0.74,1.22-0.95,2.26-0.95c1.72,0,2.56,0.74,2.56,2.13v4.34h-0.92V411.12z M210.88,408.17h-1.79c-0.96,0-1.43,0.39-1.43,1.13
		s0.46,1.09,1.47,1.09c0.55,0,1.03-0.04,1.43-0.43c0.22-0.21,0.33-0.57,0.33-1.1v-0.69H210.88z"/>
	<path d="M215.92,411.12c-1.09,0-1.64-0.77-1.64-1.72v-3.93h-0.81v-0.71h0.81v-2h0.94v2h1.36v0.71h-1.36v3.9
		c0,0.58,0.27,0.94,0.87,0.94h0.49v0.81H215.92z"/>
	<path d="M222.12,411.12v-0.61c-0.52,0.52-0.99,0.69-1.85,0.69c-0.88,0-1.4-0.17-1.81-0.58c-0.31-0.31-0.48-0.79-0.48-1.3
		c0-1.12,0.78-1.85,2.21-1.85h1.92v-0.61c0-0.94-0.47-1.4-1.64-1.4c-0.82,0-1.23,0.19-1.61,0.73l-0.64-0.58
		c0.57-0.74,1.22-0.95,2.26-0.95c1.72,0,2.56,0.74,2.56,2.13v4.34h-0.92V411.12z M222.12,408.17h-1.79c-0.96,0-1.43,0.39-1.43,1.13
		s0.45,1.09,1.47,1.09c0.55,0,1.03-0.04,1.43-0.43c0.22-0.21,0.33-0.57,0.33-1.1v-0.69H222.12z"/>
	<path d="M231.17,411.2c-1.39,0-2.3-0.35-3.17-1.22l0.68-0.68c0.77,0.77,1.48,1.01,2.52,1.01c1.35,0,2.18-0.64,2.18-1.72
		c0-0.48-0.14-0.9-0.44-1.16s-0.53-0.34-1.21-0.44l-1.08-0.17c-0.73-0.12-1.3-0.35-1.7-0.7c-0.47-0.42-0.7-0.99-0.7-1.73
		c0-1.57,1.13-2.61,2.96-2.61c1.18,0,1.96,0.3,2.76,1.01l-0.64,0.64c-0.57-0.52-1.18-0.79-2.16-0.79c-1.24,0-1.95,0.69-1.95,1.72
		c0,0.46,0.13,0.82,0.42,1.07s0.77,0.43,1.25,0.51l1.01,0.16c0.87,0.13,1.3,0.31,1.69,0.65c0.51,0.43,0.78,1.07,0.78,1.83
		C234.37,410.2,233.09,411.2,231.17,411.2z"/>
	<path d="M236.2,402.9v-1.05h1.05v1.05H236.2z M236.25,411.12v-6.4h0.94v6.4H236.25z"/>
	<path d="M238.99,411.12v-0.81l3.56-4.76h-3.37v-0.83h4.45v0.79l-3.57,4.77h3.57v0.83h-4.64V411.12z"/>
	<path d="M246.09,408.17c0,1.4,0.66,2.21,1.89,2.21c0.74,0,1.17-0.22,1.68-0.73l0.64,0.56c-0.65,0.65-1.25,0.99-2.34,0.99
		c-1.69,0-2.8-1.01-2.8-3.28c0-2.07,1-3.28,2.63-3.28c1.65,0,2.63,1.2,2.63,3.09v0.43h-4.33V408.17z M249.28,406.4
		c-0.25-0.58-0.82-0.96-1.5-0.96s-1.25,0.38-1.5,0.96c-0.14,0.35-0.17,0.55-0.2,1.07h3.38C249.45,406.95,249.42,406.75,249.28,406.4
		z"/>
</g>
<g>
	<path class="st56" d="M502.55,304.42c-1.94,0-3.17-1.31-3.17-3.28c0-0.82,0.24-1.6,0.72-2.56l2.8-5.65h1.18l-2.54,5.12
		c0.35-0.16,0.75-0.24,1.2-0.24c1.78,0,2.96,1.36,2.96,3.23C505.7,302.98,504.48,304.42,502.55,304.42z M502.53,298.78
		c-1.22,0-2,0.9-2,2.3c0,1.39,0.78,2.3,2,2.3s2.02-0.91,2.02-2.3C504.55,299.82,503.84,298.78,502.53,298.78z"/>
	<path class="st56" d="M508.11,304.32v-1.5h1.5v1.5H508.11z"/>
	<path class="st56" d="M515.2,304.32V294.2l-2.13,1.87v-1.31l2.13-1.84h1.15v11.4H515.2z"/>
	<path class="st56" d="M525.17,304.32l-1.89-3.06l-1.92,3.06h-1.39l2.67-4.02l-2.56-3.86h1.39l1.81,2.91l1.78-2.91h1.39l-2.56,3.86
		l2.67,4.02H525.17z"/>
	<path class="st56" d="M537.81,303.73c-0.42,0.42-1.12,0.69-1.92,0.69c-0.87,0-1.58-0.21-2.23-1.04v0.94h-1.15v-11.4h1.15v4.43
		c0.64-0.82,1.36-1.01,2.23-1.01c0.8,0,1.5,0.27,1.92,0.69c0.8,0.8,0.96,2.11,0.96,3.35S538.61,302.93,537.81,303.73z
		 M535.65,297.37c-1.71,0-1.99,1.47-1.99,3.01s0.27,3.01,1.99,3.01s1.97-1.47,1.97-3.01C537.62,298.85,537.36,297.37,535.65,297.37z
		"/>
	<path class="st56" d="M541.99,300.69c0,1.73,0.82,2.72,2.32,2.72c0.91,0,1.44-0.27,2.07-0.9l0.78,0.69
		c-0.8,0.8-1.54,1.22-2.88,1.22c-2.08,0-3.44-1.25-3.44-4.03c0-2.54,1.23-4.03,3.23-4.03c2.03,0,3.23,1.47,3.23,3.81v0.53h-5.31
		V300.69z M545.91,298.51c-0.3-0.72-1.01-1.18-1.84-1.18s-1.54,0.46-1.84,1.18c-0.18,0.43-0.21,0.67-0.24,1.31h4.16
		C546.12,299.18,546.08,298.94,545.91,298.51z"/>
	<path class="st56" d="M551.97,304.32c-1.34,0-2.02-0.94-2.02-2.11v-4.83h-0.99v-0.88h0.99v-2.46h1.15v2.46h1.68v0.88h-1.68v4.8
		c0,0.72,0.34,1.15,1.07,1.15h0.61v0.99H551.97z"/>
	<path class="st56" d="M557.23,304.32c-1.34,0-2.02-0.94-2.02-2.11v-4.83h-0.99v-0.88h0.99v-2.46h1.15v2.46h1.68v0.88h-1.68v4.8
		c0,0.72,0.34,1.15,1.07,1.15h0.61v0.99H557.23z"/>
	<path class="st56" d="M561.01,300.69c0,1.73,0.82,2.72,2.32,2.72c0.91,0,1.44-0.27,2.07-0.9l0.78,0.69
		c-0.8,0.8-1.54,1.22-2.88,1.22c-2.08,0-3.44-1.25-3.44-4.03c0-2.54,1.23-4.03,3.23-4.03c2.03,0,3.23,1.47,3.23,3.81v0.53h-5.31
		V300.69z M564.93,298.51c-0.3-0.72-1.01-1.18-1.84-1.18s-1.54,0.46-1.84,1.18c-0.18,0.43-0.21,0.67-0.24,1.31h4.16
		C565.14,299.18,565.11,298.94,564.93,298.51z"/>
	<path class="st56" d="M573.19,297.95c-0.43-0.43-0.75-0.58-1.36-0.58c-1.15,0-1.89,0.91-1.89,2.11v4.83h-1.15v-7.88h1.15v0.96
		c0.43-0.66,1.3-1.06,2.21-1.06c0.75,0,1.33,0.18,1.89,0.74L573.19,297.95z"/>
</g>
<path class="st56" d="M485.94,335.72l3,6l3-6H485.94z M489.94,336.72v-45.21h-2v45.21H489.94z"/>
<g>
	<path class="st57" d="M624.49,436.64c-1.61,0-2.83-1.09-2.83-3.28c0-2.18,1.22-3.28,2.83-3.28c0.88,0,1.44,0.23,2.11,0.95
		l-0.64,0.6c-0.48-0.53-0.86-0.72-1.47-0.72c-0.62,0-1.14,0.25-1.48,0.73c-0.3,0.42-0.42,0.91-0.42,1.72s0.12,1.3,0.42,1.72
		c0.34,0.48,0.86,0.73,1.48,0.73c0.61,0,0.99-0.2,1.47-0.73l0.64,0.61C625.93,436.4,625.37,436.64,624.49,436.64z"/>
	<path class="st57" d="M632.42,436.56v-0.71c-0.46,0.52-1.09,0.79-1.81,0.79c-0.69,0-1.26-0.21-1.65-0.6
		c-0.46-0.44-0.65-1.05-0.65-1.79v-4.08h0.94v3.94c0,1.13,0.6,1.7,1.56,1.7s1.6-0.58,1.6-1.7v-3.94h0.94v6.4h-0.93L632.42,436.56
		L632.42,436.56z"/>
	<path class="st57" d="M639.45,436.56v-0.77c-0.52,0.68-1.12,0.84-1.82,0.84c-0.65,0-1.22-0.22-1.56-0.56
		c-0.65-0.65-0.78-1.72-0.78-2.72s0.13-2.07,0.78-2.72c0.34-0.34,0.91-0.56,1.56-0.56c0.7,0,1.29,0.16,1.81,0.82v-3.6h0.94v9.26
		L639.45,436.56L639.45,436.56z M637.84,430.92c-1.39,0-1.61,1.2-1.61,2.44s0.22,2.44,1.61,2.44s1.6-1.2,1.6-2.44
		S639.23,430.92,637.84,430.92z"/>
	<path class="st57" d="M646.38,436.56v-0.61c-0.52,0.52-0.99,0.69-1.85,0.69c-0.88,0-1.4-0.17-1.81-0.58
		c-0.31-0.31-0.48-0.79-0.48-1.3c0-1.12,0.78-1.85,2.21-1.85h1.92v-0.61c0-0.94-0.47-1.4-1.64-1.4c-0.82,0-1.24,0.19-1.61,0.73
		l-0.64-0.58c0.57-0.74,1.22-0.95,2.26-0.95c1.72,0,2.56,0.74,2.56,2.13v4.34h-0.92L646.38,436.56L646.38,436.56z M646.38,433.61
		h-1.79c-0.96,0-1.43,0.39-1.43,1.13s0.46,1.09,1.47,1.09c0.55,0,1.03-0.04,1.43-0.43c0.22-0.21,0.32-0.57,0.32-1.1V433.61z"/>
	<path class="st57" d="M656.73,436.56v-7.03l-2.54,5.58h-0.84l-2.57-5.58v7.03h-0.99v-9.26h0.99l3.02,6.57l2.94-6.57h0.99v9.26
		H656.73z"/>
	<path class="st57" d="M660.82,433.61c0,1.4,0.66,2.21,1.89,2.21c0.74,0,1.17-0.22,1.68-0.73l0.64,0.56
		c-0.65,0.65-1.25,0.99-2.34,0.99c-1.69,0-2.79-1.01-2.79-3.28c0-2.07,1-3.28,2.63-3.28c1.65,0,2.63,1.2,2.63,3.09v0.43h-4.34
		V433.61z M664.01,431.84c-0.25-0.58-0.82-0.96-1.5-0.96s-1.25,0.38-1.5,0.96c-0.14,0.35-0.17,0.55-0.2,1.07h3.38
		C664.18,432.39,664.15,432.19,664.01,431.84z"/>
	<path class="st57" d="M675.33,436.56v-3.94c0-1.13-0.61-1.7-1.57-1.7c-0.94,0-1.6,0.58-1.6,1.6v4.04h-0.94v-3.94
		c0-1.13-0.61-1.7-1.57-1.7s-1.6,0.58-1.6,1.7v3.94h-0.94v-6.4h0.94v0.7c0.46-0.52,1.09-0.78,1.81-0.78c0.88,0,1.57,0.36,1.96,1.07
		c0.49-0.7,1.21-1.07,2.11-1.07c0.69,0,1.26,0.22,1.65,0.6c0.45,0.44,0.69,1.04,0.69,1.78v4.09L675.33,436.56L675.33,436.56z"/>
	<path class="st57" d="M680.98,436.64c-1.61,0-2.83-1.09-2.83-3.28c0-2.18,1.22-3.28,2.83-3.28c0.88,0,1.44,0.23,2.11,0.95
		l-0.64,0.6c-0.48-0.53-0.86-0.72-1.47-0.72c-0.62,0-1.14,0.25-1.48,0.73c-0.3,0.42-0.42,0.91-0.42,1.72s0.12,1.3,0.42,1.72
		c0.34,0.48,0.86,0.73,1.48,0.73c0.61,0,0.99-0.2,1.47-0.73l0.64,0.61C682.43,436.4,681.87,436.64,680.98,436.64z"/>
	<path class="st57" d="M689.17,436.08c-0.34,0.34-0.91,0.56-1.56,0.56c-0.7,0-1.29-0.17-1.81-0.83v3.61h-0.94v-9.26h0.94v0.75
		c0.52-0.68,1.1-0.83,1.81-0.83c0.65,0,1.22,0.22,1.56,0.56c0.65,0.65,0.78,1.72,0.78,2.72S689.82,435.43,689.17,436.08z
		 M687.42,430.92c-1.39,0-1.61,1.2-1.61,2.44s0.22,2.44,1.61,2.44s1.6-1.2,1.6-2.44S688.81,430.92,687.42,430.92z"/>
	<path class="st57" d="M693.58,438.11c-0.13,0.35-0.27,0.58-0.46,0.75c-0.34,0.33-0.79,0.44-1.25,0.44h-0.4v-0.83h0.29
		c0.65,0,0.84-0.21,1.05-0.79l0.46-1.25l-2.3-6.27h1.01l1.75,5.14l1.74-5.14h1.01L693.58,438.11z"/>
</g>
<g>
	<path class="st57" d="M520.31,435.57c-0.65,0.7-1.52,1.07-2.47,1.07c-0.91,0-1.74-0.34-2.37-0.96c-0.87-0.87-0.87-1.78-0.87-3.74
		s0-2.87,0.87-3.74c0.62-0.62,1.44-0.96,2.37-0.96c1.77,0,2.96,1.14,3.24,2.77h-0.99c-0.26-1.17-1.09-1.88-2.25-1.88
		c-0.61,0-1.2,0.25-1.6,0.66c-0.58,0.6-0.65,1.22-0.65,3.16s0.07,2.57,0.65,3.17c0.4,0.42,0.99,0.65,1.6,0.65
		c0.68,0,1.33-0.27,1.75-0.79c0.38-0.46,0.52-0.96,0.52-1.68v-0.7h-2.27v-0.87h3.26v1.47C521.1,434.25,520.88,434.96,520.31,435.57z
		"/>
	<path class="st57" d="M528.96,435.7c-0.56,0.56-1.38,0.86-2.34,0.86h-3.17v-9.26h3.17c0.96,0,1.78,0.3,2.34,0.86
		c0.96,0.96,0.91,2.38,0.91,3.67S529.92,434.74,528.96,435.7z M528.27,428.86c-0.48-0.49-1.1-0.68-1.82-0.68h-2.01v7.49h2.01
		c0.72,0,1.34-0.18,1.82-0.68c0.64-0.66,0.61-2.04,0.61-3.17S528.9,429.53,528.27,428.86z"/>
	<path class="st57" d="M537.51,436.56l-2.11-4.11h-2.22v4.11h-0.99v-9.26h3.55c1.61,0,2.74,0.98,2.74,2.57
		c0,1.35-0.82,2.24-2.01,2.48l2.2,4.2L537.51,436.56L537.51,436.56z M535.65,428.19h-2.47v3.39h2.47c1.08,0,1.85-0.56,1.85-1.69
		S536.73,428.19,535.65,428.19z"/>
	<path class="st57" d="M543.58,436.64c-0.91,0-1.74-0.34-2.37-0.96c-0.87-0.87-0.87-1.78-0.87-3.74s0-2.87,0.87-3.74
		c0.62-0.62,1.46-0.96,2.37-0.96c1.66,0,2.9,1.01,3.21,2.76h-1.01c-0.25-1.13-1.04-1.87-2.2-1.87c-0.61,0-1.2,0.23-1.6,0.65
		c-0.58,0.6-0.65,1.23-0.65,3.17s0.06,2.57,0.65,3.17c0.4,0.42,0.99,0.65,1.6,0.65c1.16,0,1.98-0.74,2.22-1.87h0.99
		C546.49,435.62,545.23,436.64,543.58,436.64z"/>
	<path class="st57" d="M552.89,435.91c-0.44,0.44-1.05,0.73-1.83,0.73s-1.39-0.29-1.83-0.73c-0.65-0.66-0.78-1.56-0.78-2.55
		s0.13-1.88,0.78-2.55c0.44-0.44,1.05-0.73,1.83-0.73s1.39,0.29,1.83,0.73c0.65,0.66,0.78,1.56,0.78,2.55
		S553.54,435.25,552.89,435.91z M552.23,431.39c-0.3-0.3-0.71-0.47-1.17-0.47s-0.86,0.17-1.16,0.47c-0.47,0.47-0.52,1.26-0.52,1.98
		s0.05,1.51,0.52,1.98c0.3,0.3,0.7,0.47,1.16,0.47s0.87-0.17,1.17-0.47c0.47-0.47,0.51-1.26,0.51-1.98S552.69,431.85,552.23,431.39z
		"/>
	<path class="st57" d="M559.96,436.08c-0.34,0.34-0.91,0.56-1.56,0.56c-0.7,0-1.29-0.17-1.81-0.83v3.61h-0.94v-9.26h0.94v0.75
		c0.52-0.68,1.1-0.83,1.81-0.83c0.65,0,1.22,0.22,1.56,0.56c0.65,0.65,0.78,1.72,0.78,2.72S560.61,435.43,559.96,436.08z
		 M558.2,430.92c-1.39,0-1.61,1.2-1.61,2.44s0.22,2.44,1.61,2.44s1.6-1.2,1.6-2.44S559.6,430.92,558.2,430.92z"/>
	<path class="st57" d="M564.35,438.11c-0.13,0.35-0.27,0.58-0.46,0.75c-0.34,0.33-0.79,0.44-1.25,0.44h-0.4v-0.83h0.29
		c0.65,0,0.84-0.21,1.05-0.79l0.46-1.25l-2.3-6.27h1.01l1.75,5.14l1.74-5.14h1.01L564.35,438.11z"/>
</g>
<line class="st58" x1="604.06" y1="431.39" x2="615.46" y2="431.39"/>
<line class="st59" x1="497.15" y1="431.39" x2="508.54" y2="431.39"/>
<g>
	<path d="M576.09,410.26c-0.56,0.56-1.38,0.86-2.34,0.86h-3.17v-9.26h3.17c0.96,0,1.78,0.3,2.34,0.86c0.96,0.96,0.91,2.38,0.91,3.67
		S577.05,409.3,576.09,410.26z M575.4,403.42c-0.48-0.49-1.1-0.68-1.82-0.68h-2.01v7.49h2.01c0.72,0,1.34-0.18,1.82-0.68
		c0.64-0.66,0.61-2.04,0.61-3.17S576.04,404.09,575.4,403.42z"/>
	<path d="M582.79,411.12v-0.61c-0.52,0.52-0.99,0.69-1.85,0.69c-0.88,0-1.4-0.17-1.81-0.58c-0.31-0.31-0.48-0.79-0.48-1.3
		c0-1.12,0.78-1.85,2.21-1.85h1.92v-0.61c0-0.94-0.47-1.4-1.64-1.4c-0.82,0-1.24,0.19-1.61,0.73l-0.64-0.58
		c0.57-0.74,1.22-0.95,2.26-0.95c1.72,0,2.56,0.74,2.56,2.13v4.34h-0.92L582.79,411.12L582.79,411.12z M582.79,408.17H581
		c-0.96,0-1.43,0.39-1.43,1.13s0.46,1.09,1.47,1.09c0.55,0,1.03-0.04,1.43-0.43c0.22-0.21,0.32-0.57,0.32-1.1V408.17z"/>
	<path d="M587.83,411.12c-1.09,0-1.64-0.77-1.64-1.72v-3.93h-0.81v-0.71h0.81v-2h0.94v2h1.37v0.71h-1.37v3.9
		c0,0.58,0.27,0.94,0.87,0.94h0.49v0.81H587.83z"/>
	<path d="M594.03,411.12v-0.61c-0.52,0.52-0.99,0.69-1.85,0.69c-0.88,0-1.4-0.17-1.81-0.58c-0.31-0.31-0.48-0.79-0.48-1.3
		c0-1.12,0.78-1.85,2.21-1.85h1.92v-0.61c0-0.94-0.47-1.4-1.64-1.4c-0.82,0-1.24,0.19-1.61,0.73l-0.64-0.58
		c0.57-0.74,1.22-0.95,2.26-0.95c1.72,0,2.56,0.74,2.56,2.13v4.34h-0.92L594.03,411.12L594.03,411.12z M594.03,408.17h-1.79
		c-0.96,0-1.43,0.39-1.43,1.13s0.46,1.09,1.47,1.09c0.55,0,1.03-0.04,1.43-0.43c0.22-0.21,0.32-0.57,0.32-1.1V408.17z"/>
	<path d="M603.08,411.2c-1.39,0-2.3-0.35-3.17-1.22l0.68-0.68c0.77,0.77,1.48,1.01,2.52,1.01c1.35,0,2.18-0.64,2.18-1.72
		c0-0.48-0.14-0.9-0.44-1.16s-0.53-0.34-1.21-0.44l-1.08-0.17c-0.73-0.12-1.3-0.35-1.7-0.7c-0.47-0.42-0.7-0.99-0.7-1.73
		c0-1.57,1.13-2.61,2.96-2.61c1.18,0,1.96,0.3,2.76,1.01l-0.64,0.64c-0.57-0.52-1.18-0.79-2.16-0.79c-1.23,0-1.95,0.69-1.95,1.72
		c0,0.46,0.13,0.82,0.42,1.07s0.77,0.43,1.25,0.51l1.01,0.16c0.87,0.13,1.3,0.31,1.69,0.65c0.51,0.43,0.78,1.07,0.78,1.83
		C606.28,410.2,605,411.2,603.08,411.2z"/>
	<path d="M608.11,402.9v-1.05h1.05v1.05H608.11z M608.16,411.12v-6.4h0.94v6.4H608.16z"/>
	<path d="M610.9,411.12v-0.81l3.56-4.76h-3.37v-0.83h4.45v0.79l-3.58,4.77h3.58v0.83h-4.64V411.12z"/>
	<path d="M618,408.17c0,1.4,0.66,2.21,1.89,2.21c0.74,0,1.17-0.22,1.68-0.73l0.64,0.56c-0.65,0.65-1.25,0.99-2.34,0.99
		c-1.69,0-2.79-1.01-2.79-3.28c0-2.07,1-3.28,2.63-3.28c1.65,0,2.63,1.2,2.63,3.09v0.43H618V408.17z M621.19,406.4
		c-0.25-0.58-0.82-0.96-1.5-0.96s-1.25,0.38-1.5,0.96c-0.14,0.35-0.17,0.55-0.2,1.07h3.38C621.36,406.95,621.33,406.75,621.19,406.4
		z"/>
</g>
<g>
	<path d="M435.48,255.94h-9.26v-0.99h8.37v-4.73h0.88v5.72H435.48z"/>
	<path d="M435.48,245h-0.61c0.52,0.52,0.69,0.99,0.69,1.85c0,0.88-0.17,1.4-0.58,1.81c-0.31,0.31-0.79,0.48-1.3,0.48
		c-1.12,0-1.85-0.78-1.85-2.21V245h-0.61c-0.94,0-1.4,0.47-1.4,1.64c0,0.82,0.19,1.24,0.73,1.61l-0.58,0.64
		c-0.74-0.57-0.95-1.22-0.95-2.26c0-1.72,0.74-2.56,2.13-2.56h4.34V245H435.48z M432.53,245v1.79c0,0.96,0.39,1.43,1.13,1.43
		s1.09-0.46,1.09-1.47c0-0.55-0.04-1.03-0.43-1.43c-0.21-0.22-0.57-0.33-1.1-0.33h-0.69V245z"/>
	<path d="M435.48,239.96c0,1.09-0.77,1.64-1.72,1.64h-3.93v0.81h-0.71v-0.81h-2v-0.94h2v-1.37h0.71v1.37h3.9
		c0.58,0,0.94-0.27,0.94-0.87v-0.49h0.81V239.96z"/>
	<path d="M432.53,236.81c1.4,0,2.21-0.66,2.21-1.89c0-0.74-0.22-1.17-0.73-1.68l0.56-0.64c0.65,0.65,0.99,1.25,0.99,2.34
		c0,1.69-1.01,2.79-3.28,2.79c-2.07,0-3.28-1-3.28-2.63c0-1.65,1.2-2.63,3.09-2.63h0.43v4.34L432.53,236.81L432.53,236.81z
		 M430.76,233.62c-0.58,0.25-0.96,0.82-0.96,1.5s0.38,1.25,0.96,1.5c0.35,0.14,0.55,0.17,1.07,0.2v-3.38
		C431.31,233.45,431.11,233.48,430.76,233.62z"/>
	<path d="M435.48,226.42h-3.94c-1.13,0-1.7,0.61-1.7,1.57s0.58,1.59,1.7,1.59h3.94v0.94h-6.4v-0.94h0.7
		c-0.52-0.46-0.78-1.08-0.78-1.79c0-0.69,0.21-1.25,0.6-1.64c0.44-0.46,1.04-0.66,1.78-0.66h4.09L435.48,226.42L435.48,226.42z"/>
	<path d="M435.56,220.78c0,1.61-1.09,2.83-3.28,2.83c-2.18,0-3.28-1.22-3.28-2.83c0-0.88,0.23-1.44,0.95-2.11l0.6,0.64
		c-0.53,0.48-0.72,0.86-0.72,1.47c0,0.62,0.25,1.14,0.73,1.48c0.42,0.3,0.91,0.42,1.72,0.42s1.3-0.12,1.72-0.42
		c0.48-0.34,0.73-0.86,0.73-1.48c0-0.61-0.2-0.99-0.73-1.47l0.61-0.64C435.33,219.33,435.56,219.89,435.56,220.78z"/>
	<path d="M437.03,215.3c0.35,0.13,0.58,0.27,0.75,0.46c0.33,0.34,0.44,0.79,0.44,1.25v0.4h-0.83v-0.29c0-0.65-0.21-0.84-0.79-1.05
		l-1.25-0.46l-6.27,2.3v-1.01l5.14-1.75l-5.14-1.74v-1.01L437.03,215.3z"/>
	<path d="M436.7,206.67c-0.42,0.42-0.69,0.7-1.12,0.94c-0.43,0.23-0.88,0.27-1.34,0.27h-6.79c-0.46,0-0.91-0.04-1.34-0.27
		c-0.43-0.23-0.7-0.52-1.12-0.94l0.64-0.64c0.3,0.3,0.51,0.53,0.85,0.7c0.26,0.13,0.62,0.21,1.05,0.21h6.63
		c0.43,0,0.79-0.08,1.05-0.21c0.34-0.17,0.55-0.4,0.84-0.7L436.7,206.67z"/>
	<path d="M435.48,199.99h-0.71c0.52,0.46,0.79,1.09,0.79,1.81c0,0.69-0.21,1.26-0.6,1.65c-0.44,0.46-1.05,0.65-1.79,0.65h-4.08
		v-0.94h3.94c1.13,0,1.7-0.6,1.7-1.56c0-0.96-0.58-1.6-1.7-1.6h-3.94v-0.94h6.4v0.93L435.48,199.99L435.48,199.99z"/>
	<path d="M435.56,194.76c0,1.08-0.25,1.92-0.92,2.63l-0.62-0.62c0.53-0.51,0.74-1.2,0.74-1.99c0-1.05-0.38-1.7-1.13-1.7
		c-0.56,0-0.87,0.33-0.94,1.07l-0.09,1.05c-0.1,1.25-0.66,1.91-1.72,1.91c-1.17,0-1.87-0.99-1.87-2.35c0-0.91,0.22-1.73,0.69-2.3
		l0.61,0.61c-0.35,0.46-0.51,1.04-0.51,1.7c0,0.94,0.4,1.43,1.05,1.43c0.55,0,0.87-0.31,0.94-1.12l0.09-1.03
		c0.1-1.12,0.53-1.88,1.73-1.88C434.85,192.16,435.56,193.22,435.56,194.76z"/>
	<path d="M435.59,189.06c0.43,0.23,0.7,0.52,1.12,0.94l-0.66,0.66c-0.3-0.3-0.51-0.55-0.84-0.72c-0.26-0.13-0.61-0.18-1.03-0.18
		h-6.63c-0.42,0-0.77,0.05-1.03,0.18c-0.34,0.17-0.55,0.42-0.84,0.72l-0.66-0.66c0.42-0.42,0.69-0.7,1.12-0.94
		c0.43-0.23,0.88-0.26,1.34-0.26h6.79C434.7,188.8,435.16,188.82,435.59,189.06z"/>
</g>
</svg>
